<?xml version="1.0" standalone="no"?>
<!DOCTYPE svg PUBLIC "-//W3C//DTD SVG 1.1//EN" "http://www.w3.org/Graphics/SVG/1.1/DTD/svg11.dtd" >
<svg xmlns="http://www.w3.org/2000/svg" xmlns:xlink="http://www.w3.org/1999/xlink" version="1.1">
<metadata></metadata>
<defs>
<font id="introregular" horiz-adv-x="952" >
<font-face units-per-em="2048" ascent="1536" descent="-512" />
<missing-glyph horiz-adv-x="514" />
<glyph horiz-adv-x="0" />
<glyph horiz-adv-x="0" />
<glyph unicode="&#xd;" horiz-adv-x="448" />
<glyph unicode=" "  horiz-adv-x="514" />
<glyph unicode="&#x09;" horiz-adv-x="514" />
<glyph unicode="&#xa0;" horiz-adv-x="514" />
<glyph unicode="!" horiz-adv-x="559" d="M141 96q0 59 39 92t96 33q55 0 95.5 -32.5t40.5 -92.5q0 -55 -40.5 -90t-95.5 -35q-57 0 -96 35t-39 90zM156 1436h243l-12 -1106h-213z" />
<glyph unicode="&#x22;" horiz-adv-x="761" d="M143 989v445h181l-27 -445h-154zM451 989v445h180l-27 -445h-153z" />
<glyph unicode="#" horiz-adv-x="1429" d="M88 387v160h242l45 293h-223v161h247l64 431h199l-62 -431h348l66 431h198l-61 -431h188v-161h-213l-43 -293h191v-160h-213l-55 -387h-207l57 387h-344l-55 -387h-209l57 387h-217zM526 543h359l45 303h-359z" />
<glyph unicode="$" horiz-adv-x="1316" d="M88 408h229q2 -53 29 -92.5t67 -66t89 -41.5t98 -20v451q-92 10 -180 32.5t-156.5 67.5t-109.5 115t-41 172q0 104 42 182t109.5 131.5t155.5 83t180 35.5v139h121v-143q88 -8 171 -38t148.5 -81t105.5 -125.5t42 -173.5h-223q-4 53 -24.5 90t-54.5 60.5t-76 37t-89 19.5 v-422q102 -12 195.5 -34.5t164 -67.5t112.5 -120t42 -191q0 -102 -45 -179t-118 -130.5t-165 -84t-186 -39.5v-139h-121v137q-96 8 -187 38t-163 83t-116 131t-46 183zM348 1032q0 -53 21.5 -87t57.5 -55.5t81 -33.5t92 -20v407q-43 -4 -88 -17.5t-82 -39t-59.5 -63.5 t-22.5 -91zM721 190q49 6 98 19.5t88 38t63.5 63.5t24.5 97q0 61 -22.5 99t-60.5 60.5t-88 34.5t-103 23v-435z" />
<glyph unicode="%" horiz-adv-x="1798" d="M72 1106q0 119 52 197.5t131 117.5t170 39t170 -39t131 -117.5t52 -197.5t-52 -197t-131 -117.5t-170 -39.5t-170 39.5t-131 117.5t-52 197zM254 1106q0 -66 25.5 -109t63.5 -64.5t83 -21.5t83 21.5t63.5 64.5t25.5 109t-25.5 108.5t-63.5 64t-83 21.5t-83 -21.5 t-63.5 -64t-25.5 -108.5zM434 0l703 1432h213l-705 -1432h-211zM1020 322q0 117 52 195.5t131 117.5t170 39t170 -39t131 -117.5t52 -195.5q0 -119 -52 -198t-131 -118t-170 -39t-170 39t-131 118t-52 198zM1200 322q0 -66 25.5 -109t64.5 -64.5t83 -21.5t83 21.5t64.5 64.5 t25.5 109q0 63 -25.5 106t-64.5 64.5t-83 21.5t-83 -21.5t-64.5 -64.5t-25.5 -106z" />
<glyph unicode="&#x26;" horiz-adv-x="1320" d="M102 432q0 137 69 234.5t191 144.5q-82 41 -127 117t-42 170q0 78 30.5 146.5t88 119.5t140.5 81t187 30q211 -2 315.5 -95.5t114.5 -283.5h-199q-23 201 -229 200q-119 -2 -177 -57t-58 -141q0 -104 75.5 -154.5t204.5 -50.5v-193h-72q-123 0 -200.5 -68.5t-77.5 -191.5 q0 -57 22.5 -105t61.5 -83t92 -54.5t117 -19.5q137 0 207.5 77t70.5 206v430h344v-184h-141v-246q0 -227 -126 -355.5t-355 -128.5q-127 0 -225.5 37t-165 99.5t-101.5 144.5t-35 174z" />
<glyph unicode="'" horiz-adv-x="456" d="M145 983v451h181l-29 -451h-152z" />
<glyph unicode="(" horiz-adv-x="675" d="M85 579.5q-1 159.5 27.5 314.5t87 291t145.5 242.5t206 169.5l76 -135q-82 -55 -142.5 -148t-100.5 -211t-58.5 -254t-16.5 -274.5t23.5 -273.5t61.5 -252t98.5 -209t134.5 -145l-76 -137q-115 63 -202 170.5t-145.5 244t-88 292t-30.5 315z" />
<glyph unicode=")" horiz-adv-x="675" d="M49 -305q104 74 175 213t107 311t37 360.5t-34 360.5t-106.5 310.5t-178.5 211.5l76 135q117 -61 205 -167.5t146.5 -241.5t87 -291t27.5 -315.5t-31 -316t-88 -292t-145 -244t-202 -171.5z" />
<glyph unicode="*" horiz-adv-x="858" d="M104 1169l46 150l208 -78l-12 213h166l-14 -213l202 82l50 -152l-207 -59l149 -178l-133 -96l-129 182l-129 -184l-131 100l149 172z" />
<glyph unicode="+" horiz-adv-x="978" d="M115 659v181h282v280h187v-280h280v-181h-280v-280h-187v280h-282z" />
<glyph unicode="," horiz-adv-x="528" d="M129 96q0 57 39 91t96 34q41 0 69.5 -16.5t45 -42t18.5 -59t-12 -70.5l-74 -228h-127l41 170q-41 10 -68.5 42t-27.5 79z" />
<glyph unicode="-" d="M131 586v192h690v-192h-690z" />
<glyph unicode="." horiz-adv-x="532" d="M129 102q0 59 40 94t97 35t97 -34.5t40 -94.5q0 -57 -40 -92t-97 -35t-97 35t-40 92z" />
<glyph unicode="/" horiz-adv-x="1040" d="M59 2l693 1432h229l-694 -1432h-228z" />
<glyph unicode="0" horiz-adv-x="1343" d="M139 475v488q0 115 42 206t114 153t170 96t209 34t207 -34t167.5 -96t113.5 -153.5t42 -205.5v-488q0 -117 -42 -208t-113.5 -154.5t-168 -97t-206.5 -33.5q-111 0 -209 33.5t-170 97t-114 154.5t-42 208zM365 537q0 -37 4 -71t10 -65q23 -104 103.5 -156t191.5 -52 t190.5 52t102.5 156q6 31 10 65t4 71v362q0 37 -4 71t-10 64q-23 104 -103 156.5t-190 52.5q-111 0 -192 -52t-103 -157q-6 -31 -10 -64.5t-4 -70.5v-362z" />
<glyph unicode="1" horiz-adv-x="911" d="M96 0v184h262v1061h-229v189h459v-1250h266v-184h-758z" />
<glyph unicode="2" horiz-adv-x="1099" d="M88 0v51l563 735q57 70 86 154t18.5 156.5t-62.5 122t-154 49.5q-104 0 -165 -62.5t-67 -173.5h-192q10 414 432 418q158 0 258 -69.5t137 -180t7.5 -247t-130.5 -267.5q-29 -33 -61.5 -75t-77.5 -99t-103.5 -135t-138.5 -180h553v-197h-903z" />
<glyph unicode="3" horiz-adv-x="1179" d="M94 403h211q10 -111 82 -166t182 -55q125 0 201 72t76 201q0 90 -41 149.5t-105.5 90t-142.5 35.5t-151 -13v41l323 481h-577v193h907v-37l-363 -516q88 -4 159 -41t118 -95.5t72.5 -132t25.5 -153.5q0 -100 -33.5 -187.5t-97 -153t-156 -103.5t-211.5 -38q-98 0 -183 29 t-148.5 84t-102.5 134t-45 181z" />
<glyph unicode="4" horiz-adv-x="1216" d="M55 301v107l678 1026h244v-945h166v-188h-166v-301h-217v301h-705zM336 487h438v318l12 350h-4z" />
<glyph unicode="5" horiz-adv-x="1187" d="M111 395h219q10 -113 81.5 -167t178.5 -54q53 0 103 16.5t89 50t63.5 86t26.5 126.5q2 84 -24.5 140t-73.5 92t-108.5 52.5t-130.5 20.5q-98 4 -196.5 -9.5t-176.5 -31.5v717h846v-201h-652v-318q90 20 193 21q113 -2 212 -27.5t173 -82t117 -146.5t43 -221 q0 -96 -33 -184.5t-97.5 -155t-159.5 -105.5t-220 -39q-96 0 -179 28t-145.5 82t-101.5 132t-47 178z" />
<glyph unicode="6" horiz-adv-x="1224" d="M90 457q0 78 25.5 155.5t66.5 141.5l434 688h265l-351 -557q59 33 129 33q106 2 196.5 -28t156 -89.5t103.5 -146.5t38 -197q0 -121 -41 -210t-113.5 -148.5t-170 -89t-207.5 -29.5q-111 0 -207.5 29.5t-169 89t-113.5 148.5t-41 210zM324 457q0 -135 84 -205t213 -70 q131 0 214 70t83 205t-84 205.5t-213 70.5q-131 0 -214 -70.5t-83 -205.5z" />
<glyph unicode="7" horiz-adv-x="1083" d="M72 1223v211h991v-35l-637 -1399h-242l555 1223h-667z" />
<glyph unicode="8" horiz-adv-x="1267" d="M102 428q0 131 69 228.5t185 150.5q-72 43 -116.5 111.5t-44.5 160.5q-2 78 28.5 146.5t88 120t139 81t184.5 29.5q100 0 181 -28.5t139.5 -79t90 -119t31.5 -146.5q0 -92 -47 -161.5t-121 -114.5q117 -53 185.5 -149.5t70.5 -225.5q0 -96 -37.5 -179t-106.5 -144.5 t-167 -96.5t-219 -35t-219.5 35t-168 96.5t-107.5 143.5t-38 176zM336 434q0 -59 23.5 -106t64.5 -80t95.5 -51.5t115.5 -18.5t115.5 18.5t95.5 52.5t64.5 82t23.5 107q0 61 -23.5 109.5t-64.5 83.5t-96.5 53t-116.5 18t-115.5 -19t-94.5 -54t-63.5 -84t-23.5 -111z M403 1071q0 -88 68 -140t162 -52q98 0 164.5 51t66.5 143t-67.5 143.5t-161.5 51.5q-98 0 -165 -52.5t-67 -144.5z" />
<glyph unicode="9" horiz-adv-x="1218" d="M72 975q0 119 41 209t113.5 149.5t170 89t207.5 29.5q111 0 207 -29.5t169 -89t114 -149.5t41 -209q0 -86 -25 -159t-72 -144l-432 -672h-260l361 549q-59 -35 -136 -35q-109 -2 -199.5 27.5t-157.5 89t-104.5 146.5t-37.5 198zM307 975q0 -135 84 -206t213 -71t212 71 t83 206t-83 204.5t-212 69.5q-131 0 -214 -69.5t-83 -204.5z" />
<glyph unicode=":" horiz-adv-x="536" d="M131 102q0 59 40 94t97 35t97.5 -34.5t40.5 -94.5q0 -57 -40.5 -92t-97.5 -35t-97 35t-40 92zM131 762q0 59 40 94t97 35t97.5 -35t40.5 -94q0 -57 -40.5 -92t-97.5 -35t-97 35t-40 92z" />
<glyph unicode=";" horiz-adv-x="538" d="M133 762q0 57 40 91t95 34t95 -34t40 -91q0 -55 -40 -90t-95 -35t-95 35t-40 90zM135 96q0 57 39 91t96 34q45 0 80 -22.5t47 -63.5q6 -22 6 -45q-2 -16 -5 -28.5t-7 -28.5l-72 -217h-135l47 159q-41 10 -68.5 42t-27.5 79z" />
<glyph unicode="&#x3c;" horiz-adv-x="1110" d="M94 625v166l846 364v-199l-586 -249l586 -256v-197z" />
<glyph unicode="=" horiz-adv-x="1107" d="M145 385v188h818v-188h-818zM145 772v184h818v-184h-818z" />
<glyph unicode="&#x3e;" horiz-adv-x="1110" d="M170 254v197l586 258l-586 247v199l846 -364v-166z" />
<glyph unicode="?" horiz-adv-x="1030" d="M74 1038q4 102 36.5 178t88 126.5t130 75t165.5 24.5q84 2 160.5 -19.5t137 -63.5t100.5 -101.5t52 -131.5q12 -78 4 -135q-8 -68 -35.5 -119t-63.5 -96t-77 -88t-73.5 -93t-53 -113.5t-18.5 -149.5h-234q-4 96 14.5 166.5t49 123t70.5 93.5t77 80t67.5 81t45.5 99 q8 63 -6.5 111.5t-46 81t-75.5 49t-93 16.5q-39 0 -76 -13.5t-67.5 -38t-52 -61.5t-28.5 -82h-198zM373 98q0 57 40 91t97 34t95 -33.5t38 -91.5q0 -55 -38 -90t-95 -35t-97 35t-40 90z" />
<glyph unicode="@" horiz-adv-x="1859" d="M106 487q16 184 93 338t199 264.5t283 172t345 61.5q186 0 334.5 -58.5t247 -167t143.5 -261t27 -340.5q-10 -111 -48 -208.5t-95.5 -169t-132.5 -112.5t-156 -41q-92 0 -129 53.5t-29 139.5l2 30q-51 -98 -143.5 -153t-198.5 -58q-111 0 -192 41t-132 111t-71.5 163 t-10.5 195q12 127 63.5 224.5t130.5 162t180.5 97.5t213.5 30q49 0 104.5 -11t108.5 -31.5t101.5 -48t85.5 -60.5l-52 -588q-6 -63 2.5 -99t46.5 -38q45 0 83 36t66 90t44 119.5t20 125.5q14 160 -21.5 287.5t-117.5 217t-204.5 137.5t-282.5 48q-156 0 -291 -51.5 t-236.5 -143.5t-166 -220t-78.5 -284q-18 -205 41 -355t175.5 -235t279.5 -96.5t352 62.5l-13 -131q-213 -76 -399 -55.5t-320.5 123t-204 277.5t-47.5 410zM666 487q-6 -61 4 -118.5t37.5 -100.5t74.5 -68.5t115 -25.5q66 0 116 26.5t86 69.5t56.5 98.5t26.5 114.5l24 262 q-47 37 -103 53.5t-116 18.5q-59 -2 -114.5 -24.5t-99.5 -64.5t-72.5 -102.5t-34.5 -138.5z" />
<glyph unicode="A" horiz-adv-x="1439" d="M2 0v31l664 1413h110l660 -1413v-31h-248l-141 297h-656l-139 -297h-250zM469 498h502l-250 573z" />
<glyph unicode="B" horiz-adv-x="1370" d="M178 0v1434h582q98 0 180 -25t142.5 -76t94 -127t33.5 -176q0 -92 -41 -163.5t-127 -112.5q113 -39 172.5 -124t59.5 -208q0 -96 -32 -174t-91 -133.5t-143 -85t-189 -29.5h-641zM416 209h389q100 0 164.5 54t68.5 159q0 109 -73 170q-41 31 -89.5 38t-97.5 7h-362v-428z M416 831h327q104 0 168 44.5t66 148.5q0 106 -64.5 154.5t-169.5 48.5h-327v-396z" />
<glyph unicode="C" horiz-adv-x="1556" d="M94 715q0 174 59.5 310t159 231.5t231.5 145.5t279 50q104 0 209 -29.5t192 -89t152.5 -149.5t93.5 -211h-229q-53 135 -165.5 197.5t-254.5 64.5q-111 0 -200 -38t-153.5 -107.5t-99 -165t-34.5 -209.5q0 -106 34.5 -200.5t99 -164t154 -110.5t199.5 -41q147 0 263 73.5 t163 216.5h232q-27 -131 -92.5 -227t-154.5 -158.5t-195.5 -92t-215.5 -29.5q-145 0 -277 50t-232.5 144t-159 230.5t-58.5 308.5z" />
<glyph unicode="D" horiz-adv-x="1495" d="M180 0v1434h518q168 0 298 -58.5t219.5 -158t136.5 -228.5t47 -270t-46 -271.5t-135.5 -229.5t-220.5 -158.5t-299 -59.5h-518zM418 217h276q111 0 198 40t147.5 108.5t91 158.5t30.5 193q0 100 -31.5 191t-91 161t-145.5 110t-197 40h-278v-1002z" />
<glyph unicode="E" horiz-adv-x="1181" d="M178 0v1434h873v-209h-633v-379h598v-211h-598v-418h645v-217h-885z" />
<glyph unicode="F" horiz-adv-x="1122" d="M178 0v1434h864v-209h-626v-457h569v-211h-569v-557h-238z" />
<glyph unicode="G" horiz-adv-x="1585" d="M94 719q0 172 59.5 308t159 230.5t230.5 144.5t276 50q106 0 207.5 -25.5t187.5 -80t151 -139.5t97 -203h-235q-59 125 -162.5 179t-247.5 54q-113 0 -202 -41t-151.5 -110.5t-95 -165t-32.5 -201.5q0 -115 33.5 -210t96 -164t152 -107.5t199.5 -38.5q92 0 171 19.5 t138.5 63.5t99.5 115.5t54 173.5h-446v203h671q1 -30 1 -59q0 -72 -7 -141q-10 -95 -45 -189q-41 -102 -105.5 -178t-147.5 -126t-180 -74.5t-204 -24.5q-147 0 -278 50t-229.5 145t-157 232.5t-58.5 309.5z" />
<glyph unicode="H" horiz-adv-x="1488" d="M178 0v1434h238v-576h655v576h240v-1434h-240v639h-655v-639h-238z" />
<glyph unicode="I" horiz-adv-x="856" d="M82 0v193h227v1050h-209v191h656v-191h-209v-1050h227v-193h-692z" />
<glyph unicode="J" horiz-adv-x="1300" d="M63 477v162h224v-158q0 -141 86 -214.5t221 -73.5t220 73.5t85 214.5v746h-303v207h541v-957q0 -117 -42 -210t-116 -156.5t-173 -97t-212 -33.5t-210 33.5t-168 97t-112 156.5t-41 210z" />
<glyph unicode="K" horiz-adv-x="1402" d="M178 0v1434h240v-635q82 0 157.5 5t122.5 30q31 16 55.5 51t44 80t35 99t29.5 110q18 70 51 126t87 93q52 37 130 48q28 4 60 4q58 0 129 -13v-164q-26 2 -49 2t-42 -2q-38 -4 -65.5 -22.5t-46 -52.5t-35.5 -89q-33 -117 -73.5 -217.5t-112.5 -165.5l471 -686v-35h-270 l-410 627q-23 -8 -57.5 -13.5t-73.5 -7.5t-75 -2h-62v-604h-240z" />
<glyph unicode="L" horiz-adv-x="1067" d="M178 0v1434h240v-1219h616v-215h-856z" />
<glyph unicode="M" horiz-adv-x="1697" d="M178 0v1438h88l584 -742l582 742h88v-1438h-240v897l-414 -530h-32l-416 530v-897h-240z" />
<glyph unicode="N" horiz-adv-x="1533" d="M178 0v1438h86l871 -965l-17 438v523h238v-1436h-82l-877 977l17 -455v-520h-236z" />
<glyph unicode="O" horiz-adv-x="1648" d="M94 717q0 174 59.5 311t160 231.5t233.5 143.5t278 49q147 0 279.5 -49t232 -143.5t158.5 -231.5t59 -311q0 -164 -54 -299t-150.5 -232.5t-231.5 -150.5t-297 -53q-147 0 -279 49t-231.5 143t-158 230.5t-58.5 312.5zM336 717q0 -125 39 -220.5t104.5 -160t154.5 -97 t191 -32.5q100 0 189.5 32.5t157 97t106.5 160t39 220.5q0 123 -39 218t-105.5 160.5t-155.5 99.5t-190 34q-102 0 -191 -34t-155.5 -98.5t-105.5 -159.5t-39 -220z" />
<glyph unicode="P" horiz-adv-x="1335" d="M178 0v1434h594q119 0 213 -41t159.5 -110t99.5 -161t34 -194q0 -100 -35 -190.5t-100.5 -159t-158.5 -108.5t-212 -40h-354v-430h-240zM414 639h358q61 0 111.5 22.5t87.5 62.5t57.5 94t20.5 116q0 61 -19.5 115.5t-56.5 93.5t-88 61.5t-113 22.5h-358v-588z" />
<glyph unicode="Q" horiz-adv-x="1646" d="M94 719q0 166 53.5 301t150.5 231.5t231.5 148.5t295.5 52q145 0 277.5 -49t233 -142.5t159.5 -230.5t59 -311q0 -281 -147 -465l145 -231v-37h-217l-84 129q-94 -66 -203 -101q-104 -32 -220 -32h-13q-147 0 -278 52t-229.5 148.5t-156 232.5t-57.5 304zM336 719 q0 -125 39 -221.5t105.5 -162t155.5 -99t189 -33.5t189.5 31.5t156 96t105.5 162t39 226.5q0 125 -39 221t-105.5 159.5t-156.5 96.5t-191 33q-100 0 -188 -34t-154.5 -98.5t-105.5 -159.5t-39 -218z" />
<glyph unicode="R" horiz-adv-x="1396" d="M178 0v1434h592q117 0 209 -37t156.5 -100.5t98.5 -148.5t34 -181q0 -150 -82 -265.5t-219 -164.5l364 -502v-35h-241l-357 500h-315v-500h-240zM414 696h354q57 0 107.5 20.5t85 55.5t55 84t20.5 109q0 55 -19.5 103t-55 84t-85 55.5t-108.5 19.5h-354v-531z" />
<glyph unicode="S" horiz-adv-x="1325" d="M92 416h234q4 -61 35.5 -103.5t81 -68t107.5 -37.5t118 -12q57 0 115.5 8t106.5 31.5t78.5 65.5t30.5 110q0 70 -32.5 111.5t-85 64t-117 32t-125.5 15.5q-98 8 -192.5 30.5t-167 66.5t-117.5 116t-45 180q0 111 45 190.5t119.5 132t172 78t201.5 25.5q102 0 197.5 -23.5 t170.5 -74.5t121 -129t48 -189h-225q-4 57 -34 96t-74 63t-98 34t-108 10q-49 0 -102 -9t-97 -32.5t-73 -63.5t-29 -102q0 -61 28 -97t74 -57.5t105 -31.5t121 -19q109 -12 210 -32.5t178 -65.5t123 -122t46 -199q0 -119 -50 -200t-131 -131t-182.5 -72.5t-201.5 -22.5h-16 l-192 22q-104 24 -185.5 78.5t-133 137.5t-53.5 196z" />
<glyph unicode="T" horiz-adv-x="1142" d="M39 1223v211h1065v-211h-416v-1223h-233v1223h-416z" />
<glyph unicode="U" horiz-adv-x="1443" d="M164 481v953h237v-947q0 -72 25 -126t69 -91t103 -56t127 -19t126 19t101 56t67.5 91.5t24.5 125.5v947h236v-953q0 -121 -44 -213t-119 -156.5t-176 -97t-216 -32.5q-117 0 -218 32.5t-178 97t-121 156.5t-44 213z" />
<glyph unicode="V" horiz-adv-x="1370" d="M29 1399v35h254l204 -496l197 -530h6l189 520l206 506h252v-35l-602 -1411h-98z" />
<glyph unicode="W" horiz-adv-x="1998" d="M49 1399v35h248l156 -484l149 -516h4l344 975h107l344 -973h4l143 514l152 484h252v-35l-477 -1409h-123l-346 919h-5l-346 -919h-131z" />
<glyph unicode="X" horiz-adv-x="1327" d="M23 0v33l497 725l-446 641v35h256l168 -263l161 -268h7l165 275l166 256h254v-35l-444 -641l496 -725v-33h-254l-201 311l-180 293h-9l-176 -287l-207 -317h-253z" />
<glyph unicode="Y" horiz-adv-x="1290" d="M20 1399v35h256l193 -320l172 -330h8l178 340l187 310h254v-35l-504 -817v-582h-238v582z" />
<glyph unicode="Z" horiz-adv-x="1224" d="M43 0v33l481 766l287 428h-707v207h1043v-35l-557 -891l-211 -297h772v-211h-1108z" />
<glyph unicode="[" horiz-adv-x="645" d="M160 -375v1938h405v-183h-196v-1554h196v-201h-405z" />
<glyph unicode="\" horiz-adv-x="1042" d="M59 1434h232l692 -1432h-229z" />
<glyph unicode="]" horiz-adv-x="645" d="M80 -174h196v1554h-196v183h405v-1938h-405v201z" />
<glyph unicode="^" horiz-adv-x="1103" d="M104 838l365 604h162l368 -604h-198l-252 409l-246 -409h-199z" />
<glyph unicode="_" horiz-adv-x="1261" d="M131 -18h999v-191h-999v191z" />
<glyph unicode="`" horiz-adv-x="688" d="M158 1380v21l204 78l162 -301v-23h-186z" />
<glyph unicode="a" horiz-adv-x="1124" d="M70 274q0 70 24.5 129.5t71.5 104.5t118.5 70.5t168.5 25.5q72 0 149.5 -14.5t142.5 -50.5v123q0 61 -33.5 98t-85.5 54q-54 16 -118 18q-10 0 -19 1q-55 1 -107 -7q-62 -8 -116.5 -24t-85.5 -30l-35 162q76 39 171.5 55.5t193.5 16.5q90 0 172 -16.5t144.5 -56.5 t99.5 -107.5t37 -170.5v-389q0 -35 1 -61.5t10 -44t29.5 -25.5t61.5 -4l4 -133q-59 -12 -109 -15h-16q-40 0 -72 13q-38 16 -61 56t-25 114q-25 -49 -64.5 -84t-88.5 -57.5t-103.5 -32.5t-105.5 -10q-90 0 -155.5 24.5t-110.5 65.5t-66.5 93t-21.5 109zM289 289 q0 -66 43 -100.5t137 -34.5q43 0 89 12t85 39.5t66.5 73.5t35.5 116q-37 23 -112.5 41.5t-149.5 18.5q-80 0 -137 -43t-57 -123z" />
<glyph unicode="b" horiz-adv-x="1202" d="M139 59v1438h223v-557q72 37 146 51.5t139 14.5q96 0 182 -37t150.5 -105.5t101.5 -165t37 -215.5q0 -143 -46 -239.5t-125 -154.5t-180 -82.5t-212 -24.5q-102 2 -210.5 21.5t-205.5 55.5zM358 199q53 -16 111.5 -25.5t108.5 -9.5q66 0 124 16.5t101 54t67.5 98 t24.5 150.5q0 78 -22.5 137.5t-61.5 100.5t-90 62.5t-109 23.5h-16q-52 -1 -110 -11q-66 -12 -128 -48v-549z" />
<glyph unicode="c" horiz-adv-x="1157" d="M84 498q0 127 45 222t117.5 158.5t166 95.5t189.5 32q80 0 158 -21.5t142.5 -66t111.5 -112t67 -157.5h-207q-33 80 -104.5 119t-157.5 39q-57 0 -112.5 -19.5t-98.5 -57.5t-69.5 -96.5t-26.5 -135.5q0 -80 26.5 -140.5t69.5 -101.5t97.5 -61.5t109.5 -20.5q84 0 158 44 t108 136h213q-18 -94 -66 -163.5t-113.5 -115.5t-143.5 -69.5t-160 -23.5q-96 0 -189 32.5t-167 97t-119 161t-45 225.5z" />
<glyph unicode="d" horiz-adv-x="1232" d="M84 496q0 115 37 208t101.5 159.5t148.5 102t180 35.5q66 0 136.5 -17t137.5 -58v573h224v-1192v-72.5t9 -48t29.5 -26.5t63.5 -8l4 -154q-57 -10 -109.5 -10t-92.5 15t-63.5 51t-23.5 98v28q-49 -111 -133 -155.5t-194 -44.5h-10q-105 0 -186 38q-85 40 -142.5 112.5 t-87 166.5t-29.5 199zM305 496q0 -63 16.5 -121t49 -102t84 -69.5t118.5 -25.5q57 0 104.5 21.5t81.5 59.5t52 88t18 106v276q-59 41 -121 61q-57 18 -111 17h-11q-57 0 -108.5 -20.5t-89.5 -60.5t-60.5 -97.5t-22.5 -132.5z" />
<glyph unicode="e" horiz-adv-x="1128" d="M84 514q2 123 45 215t112.5 153.5t162 92.5t192.5 31q129 0 223 -43t149.5 -120t71.5 -181q7 -42 7 -87q0 -67 -15 -141h-729q0 -68 24.5 -118t68.5 -81.5t102.5 -48t126.5 -16.5q94 0 182 11.5t176 49.5l29 -165q-86 -39 -182.5 -61.5t-190.5 -22.5h-13q-116 0 -214 34 q-104 36 -177 104t-114 168q-37 92 -37 204v22zM303 588h549v11q0 56 -18 98q-20 46 -56.5 77t-83.5 45.5t-100 14.5q-111 0 -189.5 -64.5t-101.5 -181.5z" />
<glyph unicode="f" horiz-adv-x="806" d="M47 815v168h186v133q0 145 51.5 232.5t136.5 125.5q75 33 169 33q13 0 26 -1q109 -5 226 -44l-25 -155q-66 27 -131 34q-17 2 -34 2q-45 0 -84 -15q-54 -19 -86.5 -71.5t-32.5 -144.5v-129h333v-168h-333v-815h-220v815h-182z" />
<glyph unicode="g" horiz-adv-x="1185" d="M86 485q0 135 44 233.5t119 163t175 95.5q94 29 201 29h14q106 -2 207.5 -26t200.5 -65v-976q0 -129 -38 -221.5t-102.5 -153t-151.5 -90t-184 -29.5h-13q-96 0 -196 27q-106 28 -206 84l32 180q96 -47 194 -76q91 -27 172 -27h11q57 0 106.5 16.5t84.5 53.5t55 95.5 t20 144.5v108q-78 -43 -152.5 -56t-146.5 -13q-94 0 -176 33.5t-141 97t-94 156.5t-35 216zM309 485q0 -80 21.5 -138t58.5 -97t87 -57.5t108 -18.5h15q52 0 105 12q62 13 123 54v544q-53 18 -104 26.5t-105 8.5q-141 0 -224 -84t-85 -250z" />
<glyph unicode="h" horiz-adv-x="1210" d="M145 0v1497h224v-635q63 86 141 115t176 29q102 0 176 -31t122 -87.5t70.5 -135t22.5 -172.5v-580h-225v580v7q0 117 -62 177q-64 61 -167 63q-111 0 -182.5 -68.5t-71.5 -191.5v-567h-224z" />
<glyph unicode="i" horiz-adv-x="518" d="M125 1292q0 66 42 98.5t93 32.5t92 -32.5t41 -98.5t-41 -98.5t-90 -34.5h-6q-48 -1 -88 31q-43 34 -43 102zM147 0v987h224v-987h-224z" />
<glyph unicode="j" horiz-adv-x="516" d="M-84 -514l8 168q36 -5 65 -5t51 5q44 10 67.5 40t31.5 78t8 113v1102h222v-1104q0 -252 -113 -345q-78 -65 -212 -65q-59 0 -128 13zM123 1292q0 66 41 97.5t90 33.5h6q47 0 88 -31q43 -34 43 -100q0 -63 -41 -95t-90 -34h-6q-47 0 -88 31q-43 32 -43 98z" />
<glyph unicode="k" horiz-adv-x="1118" d="M145 0v1497h222v-895h102q92 0 156.5 26.5t104.5 77t57.5 122t17.5 159.5h211v-24q0 -67 -10 -127q-12 -72 -41 -133.5t-80 -111.5t-127 -85l307 -483v-23h-223l-273 434q-23 -6 -50 -8t-54 -2h-98v-424h-222z" />
<glyph unicode="l" horiz-adv-x="589" d="M135 354v1145h221v-1143q0 -61 9.5 -101t34 -61.5t66.5 -26.5q14 -2 30 -2q33 0 75 7l7 -160q-90 -14 -160 -14q-20 0 -38 1q-83 5 -137.5 43t-81 113.5t-26.5 198.5z" />
<glyph unicode="m" horiz-adv-x="1841" d="M70 989q49 11 104 15q10 1 20 1q44 -1 82 -13q46 -16 76 -54q28 -37 27 -104v-9q20 45 56 79t81 56.5t96.5 34t102.5 11.5q129 0 199.5 -46.5t99.5 -138.5q20 49 58 84t86 57.5t103.5 33t112.5 10.5q100 0 167 -34t105 -92q36 -58 50 -136q12 -68 12 -143v-23v-578h-225 v578v9q0 105 -45 172q-46 68 -141 68h-5q-104 -2 -166.5 -70.5t-64.5 -185.5v-571h-219v571q0 117 -50 187q-48 68 -147 67h-6q-104 -2 -172 -70.5t-68 -185.5v-569h-223v707q0 43 -2 71.5t-13 45t-31.5 21.5t-57.5 3z" />
<glyph unicode="n" horiz-adv-x="1241" d="M74 838v153q52 9 108 13q11 1 23 1q42 -1 77 -11q44 -14 72.5 -51.5t28.5 -106.5q20 47 57 79.5t83 52t96.5 29t99.5 9.5q100 0 174 -33t122 -89.5t71.5 -134t23.5 -169.5v-580h-225v580v7q-1 112 -65 174q-66 64 -167 66q-53 0 -98 -19.5t-79 -54t-53.5 -83.5 t-19.5 -109v-561h-225v700q0 43 -2 71t-12 43t-31.5 20.5t-58.5 3.5z" />
<glyph unicode="o" horiz-adv-x="1210" d="M84 498q0 127 44 222t115.5 158.5t164 95.5t188.5 32q102 0 198.5 -31t170 -93.5t117.5 -158.5t44 -225t-45 -226.5t-118.5 -162t-167 -96t-191.5 -31.5t-191.5 31.5t-166 96t-117.5 162t-45 226.5zM305 498q0 -80 25.5 -140.5t68.5 -100.5t97.5 -59.5t111.5 -19.5 q55 0 108.5 20.5t94.5 60.5t66.5 99.5t25.5 139.5t-26.5 139t-69.5 98t-99 57q-50 17 -101 17h-11q-55 -2 -107.5 -21.5t-93.5 -57.5t-65.5 -96t-24.5 -136z" />
<glyph unicode="p" horiz-adv-x="1228" d="M72 993q61 12 114 13h2q51 0 88 -18q39 -19 60.5 -58t21.5 -105q57 98 145.5 139.5t194.5 41.5q109 0 193 -41t140 -111t85 -162t29 -192q0 -119 -40 -216.5t-107.5 -166t-157.5 -103.5q-81 -30 -169 -30h-20q-61 4 -124.5 22.5t-125.5 54.5v-569h-223v1178v74.5t-9 53 t-30.5 32t-64.5 10.5zM397 258q61 -43 127 -64q55 -17 106 -17q9 0 19 1q55 2 104.5 24.5t86.5 63.5t58.5 99.5t21.5 134.5q0 61 -16.5 116.5t-50.5 98.5t-83 67.5t-117 24.5q-57 0 -104 -20.5t-81 -57.5t-52.5 -85t-18.5 -103v-283z" />
<glyph unicode="q" horiz-adv-x="1196" d="M94 500q0 139 43 235t116 155.5t169 86.5t203 29h19q99 0 200 -20q110 -21 213 -62v-1438h-223v567q-72 -45 -145 -58q-63 -11 -122 -11h-18q-94 2 -177 36.5t-144.5 99t-97.5 160t-36 220.5zM319 500q0 -86 21.5 -146.5t59.5 -99.5t88.5 -57.5t107.5 -18.5h12 q53 0 108 16q62 19 122 60v530q-98 31 -195 31q-68 0 -126 -14.5t-102 -51t-70 -98t-26 -151.5z" />
<glyph unicode="r" horiz-adv-x="925" d="M72 993q56 13 110 13h3q53 0 95 -16q44 -16 73.5 -52.5t33.5 -95.5q14 41 45 71.5t70 51t85 31t91 10.5h12q54 0 108 -16q60 -18 107 -54l-55 -193q-90 59 -197 60q-49 0 -95 -14.5t-81 -43t-55.5 -72.5t-20.5 -104v-569h-221v715q0 33 -2 57.5t-11 40.5t-31.5 23.5 t-61.5 5.5z" />
<glyph unicode="s" horiz-adv-x="1040" d="M76 291h219q2 -39 22.5 -66.5t52 -46t70.5 -27t80 -8.5t82 6.5t75 23.5t55.5 46t23.5 74q0 68 -61.5 95.5t-159.5 39.5q-76 10 -153 22.5t-139.5 39t-102.5 75.5t-42 133q0 80 36 137.5t94.5 95.5t134 56.5t155.5 18.5q86 0 163 -18.5t135 -55.5q58 -36 91 -92 q31 -52 31 -121v-8h-197q0 37 -20.5 61.5t-52 39.5t-71.5 22.5t-79 7.5q-41 0 -79 -9.5t-65.5 -28t-44 -44t-14.5 -58.5q2 -61 60.5 -81.5t175.5 -34.5q78 -10 151.5 -24.5t130 -46.5t91 -85t34.5 -141q0 -82 -36.5 -140.5t-96 -95.5t-137.5 -54t-160 -17t-160.5 13t-141 49 t-103.5 95.5t-47 151.5z" />
<glyph unicode="t" horiz-adv-x="884" d="M43 840v147h201l22 303h197v-303h342v-162h-342v-436q0 -94 27.5 -147.5t76.5 -72.5q34 -13 77 -13q18 0 38 2q66 8 141 35l23 -168q-126 -39 -236 -42h-15q-100 -1 -177 37q-82 40 -128 130t-46 235v440z" />
<glyph unicode="u" horiz-adv-x="1222" d="M133 416v571h225v-571v-8q0 -112 56 -178q58 -68 157 -68q106 0 178 70.5t72 189.5v565h223v-704q0 -45 3.5 -74t13.5 -45.5t31.5 -21.5t56.5 -1l2 -145q-47 -8 -101 -14q-17 -2 -33 -1q-36 1 -68 9q-46 12 -75.5 51t-29.5 119q-51 -100 -144.5 -139t-197.5 -39 q-102 0 -173 33.5t-114 92t-62.5 138.5t-19.5 170z" />
<glyph unicode="v" horiz-adv-x="1105" d="M29 963v24h241l127 -289l152 -368h4l156 366l129 291h237v-24l-477 -973h-88z" />
<glyph unicode="w" horiz-adv-x="1585" d="M39 963v24h240l124 -340l93 -270h4l235 588h111l235 -590h6l95 272q29 86 60.5 170t62.5 170h241v-24l-391 -973h-100l-264 596l-263 -596h-100z" />
<glyph unicode="x" horiz-adv-x="1042" d="M29 0v25l366 499l-311 439v24h213l113 -156l108 -167h6l107 163l117 160h225v-24l-324 -453l355 -485v-25h-216l-145 201l-115 184h-6l-121 -188l-147 -197h-225z" />
<glyph unicode="y" horiz-adv-x="1128" d="M25 963v24h239l146 -344l161 -434h7l149 432l131 346h223v-24l-428 -1047q-43 -109 -91 -202t-113.5 -150.5t-155.5 -68.5q-15 -2 -31 -2q-80 0 -188 46l26 162q66 -29 116 -29t89 24.5t66.5 70t50.5 106.5l47 121z" />
<glyph unicode="z" horiz-adv-x="960" d="M61 0v45l502 760h-471v182h793v-29l-506 -765h504v-193h-822z" />
<glyph unicode="{" horiz-adv-x="643" d="M74 543v166q37 4 59.5 22.5t34.5 45t15 59t3 65.5v391q0 100 27 158.5t76 87.5t116.5 37t149.5 8v-162q-78 0 -119 -26.5t-41 -110.5v-403q0 -39 -6 -79t-21.5 -75t-40 -61.5t-63.5 -40.5q41 -16 66.5 -43t40 -62t19.5 -74.5t5 -83.5v-425q0 -84 42 -109t118 -18v-183 q-86 0 -153.5 8.5t-115.5 38t-74 90t-26 164.5v416q0 31 -4 64.5t-16 62.5t-33.5 48.5t-58.5 23.5z" />
<glyph unicode="|" horiz-adv-x="534" d="M166 -170v1614h203v-1614h-203z" />
<glyph unicode="}" horiz-adv-x="643" d="M88 -190q76 -6 118 18.5t42 108.5v425q0 86 28.5 158t110.5 105q-39 14 -65.5 41.5t-43 61.5t-23.5 74t-7 79v403q0 84 -41 110.5t-119 26.5v162q82 0 149.5 -8t116.5 -37t76 -87t27 -159v-391q0 -33 3 -65.5t15 -59t34.5 -45t59.5 -22.5v-166q-37 -4 -58.5 -23.5 t-33.5 -48.5t-16 -62.5t-4 -64.5v-416q0 -104 -25.5 -164.5t-74 -90t-116 -38t-153.5 -8.5v183z" />
<glyph unicode="~" horiz-adv-x="1265" d="M113 639q31 92 88 148.5t128.5 78t154.5 8t163 -58.5q49 -31 101.5 -55.5t101.5 -28.5t92 21.5t74 97.5l147 -72q-37 -104 -91 -160.5t-121.5 -73t-147.5 2t-168 63.5q-53 29 -107.5 51.5t-105.5 23.5t-95 -24.5t-77 -93.5z" />
<glyph unicode="&#xa2;" horiz-adv-x="1226" d="M119 496q0 147 59.5 253.5t151.5 170t204.5 85t221.5 -0.5l53 151h100l-61 -180q98 -41 170 -119t96 -201l-207 -6q-39 92 -127 131l-205 -598q51 -12 103.5 -7t98.5 28.5t83 63.5t55 98l211 -5q-23 -113 -85 -192.5t-147 -125.5t-185.5 -58.5t-196.5 10.5l-53 -156h-105 l62 185q-61 27 -115.5 69.5t-94.5 102t-63.5 135.5t-23.5 166zM340 496q0 -98 42 -166t105 -107l203 588q-61 8 -123.5 -8.5t-113 -56t-82 -102t-31.5 -148.5z" />
<glyph unicode="&#xa3;" horiz-adv-x="1361" d="M96 672v125h172q-35 162 -8 284.5t98.5 204.5t180 123t241.5 41q111 2 218.5 -26.5t205.5 -84.5l-76 -178q-68 47 -162 71.5t-186 18.5q-113 -6 -180.5 -41.5t-99 -95t-32.5 -140.5t19 -177h463v-154h-444q10 -57 15 -117.5t-5 -119.5q-8 -49 -24.5 -99.5t-47.5 -93.5 q59 29 122 27t126.5 -16.5t125 -31t118.5 -16.5q70 0 107.5 41t31.5 162h189q20 -184 -46.5 -290.5t-236.5 -106.5q-68 0 -152 20.5t-169 35.5t-160.5 12t-126.5 -52h-273v22q96 90 139.5 180.5t47.5 211.5q2 55 -1 111.5t-14 119.5h-174v29h-2z" />
<glyph unicode="&#xa5;" horiz-adv-x="1210" d="M70 1401v33h256l147 -334l129 -328l135 334l148 328h256v-33l-373 -733h225v-150h-272v-108h272v-152h-272v-258h-229v258h-277v152h277v108h-277v150h225z" />
<glyph unicode="&#xa8;" horiz-adv-x="1042" d="M137 1333q0 55 38 88t93 33q53 0 92 -32.5t39 -88.5q0 -53 -39 -86t-92 -33q-55 0 -93 33t-38 86zM637 1333q0 55 38 88t93 33t93 -32.5t38 -88.5q0 -53 -38 -86t-93 -33t-93 33t-38 86z" />
<glyph unicode="&#xa9;" horiz-adv-x="1619" d="M111 711q0 176 60 308t158.5 220t223.5 131t257 43t257 -43t223.5 -131t158.5 -220t60 -308t-60 -308.5t-158.5 -220.5t-223.5 -132t-257 -44t-257 44t-223.5 132t-158.5 220.5t-60 308.5zM276 711q0 -186 79 -311.5t198 -186.5t257 -61t257 62t197.5 186t78.5 311 q0 186 -78.5 311t-197.5 187.5t-257 62.5t-257 -62.5t-198 -187.5t-79 -311zM485 709q0 104 42 175.5t107.5 112.5t143.5 49.5t149.5 -15t126 -79t72.5 -143.5l-133 -4q-23 68 -82 94.5t-121.5 14t-110.5 -63.5t-48 -141q0 -104 59.5 -155.5t140.5 -51.5q53 0 99.5 30.5 t66.5 92.5l136 -2q-18 -90 -73.5 -147.5t-127.5 -83t-151 -18.5t-144.5 47t-108.5 111.5t-43 176.5z" />
<glyph unicode="&#xab;" horiz-adv-x="1038" d="M98 709l293 479l133 -53l-207 -426l207 -422l-133 -54zM492 709l292 479l134 -53l-207 -426l207 -422l-134 -54z" />
<glyph unicode="&#xad;" d="M131 586v192h690v-192h-690z" />
<glyph unicode="&#xae;" horiz-adv-x="1613" d="M111 717q0 176 60 308t157.5 220t223.5 131t256 43t256 -43t223 -131t157.5 -220t60.5 -308t-60.5 -308.5t-157.5 -220.5t-223 -132t-256 -44t-256 44t-223.5 132t-157.5 220.5t-60 308.5zM274 717q0 -186 79 -311t198 -186.5t257 -61.5t257 62.5t197.5 186t78.5 310.5 q0 186 -78.5 311t-197.5 187.5t-257 62.5t-257 -62.5t-198 -187.5t-79 -311zM575 385v668h285q104 0 173 -58.5t69 -169.5q0 -70 -36 -124t-105 -72l159 -221v-23h-141l-152 225h-116v-225h-136zM711 723h137q51 0 85 28.5t34 75.5q0 45 -33 75t-86 30h-137v-209z" />
<glyph unicode="&#xb4;" horiz-adv-x="620" d="M127 1143v22l162 301l205 -77v-21l-181 -225h-186z" />
<glyph unicode="&#xb8;" horiz-adv-x="802" d="M180 -410l10 123q25 -20 65 -35.5t81 -18.5t74.5 8t44.5 46q10 33 -4.5 58.5t-40 42t-57 24.5t-56.5 6l47 183h168l-31 -125q51 -4 86 -24.5t54.5 -53.5t22.5 -73t-9 -83q-20 -66 -74.5 -99.5t-122 -40.5t-137.5 10.5t-121 51.5z" />
<glyph unicode="&#xbb;" horiz-adv-x="1038" d="M121 287l207 422l-207 426l133 53l293 -479l-293 -476zM514 287l207 422l-207 426l133 53l293 -479l-293 -476z" />
<glyph unicode="&#x192;" horiz-adv-x="1128" d="M74 -410l22 168q63 -27 126 -36t113 8.5t80.5 65.5t30.5 136v684h-311v160h311v314q0 147 55.5 232t143.5 121t196.5 27.5t215.5 -45.5l-23 -168q-66 27 -130 36.5t-116.5 -7t-85 -63.5t-32.5 -136v-311h327v-160h-327q0 -174 -1 -344t-1 -344q0 -145 -50.5 -231 t-133.5 -123t-190.5 -30t-219.5 46z" />
<glyph unicode="&#x2c6;" horiz-adv-x="1011" d="M119 1128v23l289 287h225l287 -289v-21h-222l-178 175l-178 -175h-223z" />
<glyph unicode="&#x2da;" horiz-adv-x="776" d="M139 1255q0 76 36 126.5t91.5 76t117.5 25.5t117.5 -25.5t91.5 -76t36 -126.5t-36 -126t-91.5 -75.5t-117.5 -25.5t-117.5 25.5t-91.5 76t-36 125.5zM264 1255q0 -55 38 -81.5t82 -26.5t82 26.5t38 81.5q0 53 -38 80t-82 27t-82 -27t-38 -80z" />
<glyph unicode="&#x2dc;" horiz-adv-x="905" d="M109 1274q57 129 151 174t223 -25q29 -18 58.5 -31.5t57.5 -13.5t52.5 15.5t42.5 56.5q31 -14 58.5 -27.5t60.5 -29.5q-47 -129 -138 -174t-214 20q-31 18 -63.5 31.5t-63.5 14.5t-58.5 -14.5t-48.5 -56.5z" />
<glyph unicode="&#x401;" horiz-adv-x="1181" d="M178 0v1434h873v-209h-633v-379h598v-211h-598v-418h645v-217h-885zM238 1686q0 55 37.5 87.5t93.5 32.5q53 0 92 -32.5t39 -87.5q0 -53 -39 -86t-92 -33q-55 0 -93 32.5t-38 86.5zM737 1686q0 55 38 87.5t93 32.5t93 -32.5t38 -87.5q0 -53 -38 -86t-93 -33t-93 32.5 t-38 86.5z" />
<glyph unicode="&#x402;" horiz-adv-x="1538" d="M39 1225v209h1091v-209h-468v-426q23 43 62.5 74.5t88.5 53t104.5 32t108.5 10.5q104 0 183 -33t132.5 -91.5t80 -139t26.5 -177.5v-321q0 -252 -112.5 -342t-338.5 -49l7 168q72 -10 114.5 -2t66 35.5t32 75.5t8.5 116v319q0 123 -77 187.5t-187 66.5 q-57 0 -110.5 -21.5t-94.5 -58t-66.5 -87t-27.5 -105.5v-510h-232v1225h-391z" />
<glyph unicode="&#x403;" horiz-adv-x="1062" d="M178 0v1434h854v-211h-614v-1223h-240zM496 1569v22l190 314l203 -74v-21l-211 -241h-182z" />
<glyph unicode="&#x404;" horiz-adv-x="1556" d="M94 717q0 174 58.5 310t157 231.5t229.5 144.5t276 49q106 0 212 -28.5t194 -89t153.5 -150.5t93.5 -213h-231q-55 133 -168 199.5t-254 66.5q-96 0 -180 -29.5t-148.5 -86t-104.5 -134.5t-48 -172h586v-203h-582q10 -94 52 -170.5t106.5 -131t147.5 -83t179 -28.5 q147 0 264 72.5t164 215.5h234q-27 -131 -92.5 -226t-154.5 -156.5t-195.5 -91t-217.5 -29.5q-145 0 -278 46t-233.5 139t-160 230.5t-59.5 317.5z" />
<glyph unicode="&#x405;" horiz-adv-x="1325" d="M92 408h234q4 -61 35.5 -103.5t81 -68t107.5 -38t118 -12.5q57 0 115.5 10.5t106.5 35t78.5 67.5t30.5 111q0 70 -32.5 111.5t-85 64t-117 32t-125.5 15.5q-98 8 -192.5 30.5t-167 66.5t-117.5 116t-45 180q0 111 45 192.5t119.5 135t172 80t201.5 26.5 q102 0 197.5 -23.5t170.5 -74.5t121 -129t48 -189h-225q-4 57 -34 96.5t-74 63t-98 33.5t-108 10q-49 0 -102 -11t-97 -35.5t-73 -65.5t-29 -103q0 -61 28 -97t74 -57.5t105 -31.5t121 -19q109 -12 210 -32.5t178 -65.5t123 -122t46 -199q0 -119 -50 -201t-131 -134.5 t-182.5 -76t-201.5 -23.5q-104 -2 -208 22.5t-185.5 79t-133 137.5t-53.5 196z" />
<glyph unicode="&#x406;" horiz-adv-x="856" d="M82 0v193h227v1050h-209v191h656v-191h-209v-1050h227v-193h-692z" />
<glyph unicode="&#x407;" horiz-adv-x="856" d="M82 0v193h227v1050h-209v191h656v-191h-209v-1050h227v-193h-692zM82 1677q0 55 38 88t93 33q53 0 92 -32.5t39 -88.5q0 -53 -39 -85.5t-92 -32.5q-55 0 -93 32.5t-38 85.5zM518 1677q0 55 38 88t93 33t93 -32.5t38 -88.5q0 -53 -38 -85.5t-93 -32.5t-93 32.5t-38 85.5z " />
<glyph unicode="&#x408;" horiz-adv-x="1300" d="M63 477v162h224v-158q0 -141 86 -214.5t221 -73.5t220 73.5t85 214.5v746h-303v207h541v-957q0 -117 -42 -210t-116 -156.5t-173 -97t-212 -33.5t-210 33.5t-168 97t-112 156.5t-41 210z" />
<glyph unicode="&#x409;" horiz-adv-x="2035" d="M37 4l4 176q80 -12 126 3.5t70.5 53t35 96t20.5 134.5l102 967h801v-469h281q129 0 228 -45.5t163.5 -121t91.5 -174t14 -202.5q-10 -90 -49 -167t-103.5 -133t-152.5 -89t-194 -33h-506v1221h-363q-23 -193 -40 -383.5t-36 -382.5q-16 -139 -42.5 -234.5t-80 -151 t-142.5 -70.5t-228 5zM1196 211q57 0 109.5 -1t105.5 -1q57 2 116.5 11t109 37t81 78t31.5 134t-24.5 138.5t-69.5 87t-107.5 45t-136.5 12.5h-215v-541z" />
<glyph unicode="&#x40a;" horiz-adv-x="2035" d="M178 0v1434h240v-529h547v529h231v-521h281q119 0 213 -34.5t158.5 -96t98 -144.5t33.5 -177q0 -96 -34.5 -179t-100 -146.5t-159 -99.5t-211.5 -36h-510v686h-547v-686h-240zM1196 211q78 -2 139.5 -2t139.5 2q131 4 205.5 77.5t68.5 190.5q-8 106 -83 164.5t-191 58.5 h-279v-491z" />
<glyph unicode="&#x40b;" horiz-adv-x="1540" d="M39 1225v209h1091v-209h-468v-426q29 49 69.5 81.5t88.5 52t100.5 29t105.5 9.5q104 0 183 -33t132.5 -92.5t80 -140t26.5 -177.5v-528h-223v528q0 123 -77 187.5t-187 66.5q-57 0 -110.5 -21.5t-94.5 -59t-66.5 -88t-27.5 -105.5v-508h-232v1225h-391z" />
<glyph unicode="&#x40c;" horiz-adv-x="1402" d="M178 0v1434h240v-635q82 0 157.5 5t122.5 30q31 16 55.5 51t44 80t35 99t29.5 110q18 70 51 126t86.5 93t131 48t188.5 -9v-164q-53 4 -91 0t-65.5 -22.5t-46 -52.5t-35.5 -89q-33 -117 -73.5 -217.5t-112.5 -165.5l471 -686v-35h-270l-410 627q-23 -8 -57.5 -13.5 t-73.5 -7.5t-75 -2h-62v-604h-240zM592 1569v22l188 314l203 -74v-21l-211 -241h-180z" />
<glyph unicode="&#x40e;" horiz-adv-x="1286" d="M18 1405v29h263l378 -715h9l342 715h254v-25l-566 -1128q-43 -96 -93 -168t-116.5 -111t-154.5 -40t-207 46l33 199q111 -49 182.5 -19.5t120.5 136.5l76 153zM307 1855l166 17q10 -68 57.5 -99.5t120.5 -33.5q72 0 123 29.5t64 103.5q35 -4 76.5 -8t76.5 -9 q-12 -137 -95 -223t-243 -86q-154 0 -245 84t-101 225z" />
<glyph unicode="&#x40f;" horiz-adv-x="1486" d="M178 0v1434h240v-1217h651v1217h240v-1434h-447v-285h-229v285h-455z" />
<glyph unicode="&#x410;" horiz-adv-x="1439" d="M2 0v31l664 1413h110l660 -1413v-31h-248l-141 297h-656l-139 -297h-250zM469 498h502l-250 573z" />
<glyph unicode="&#x411;" horiz-adv-x="1349" d="M178 0v1434h977v-211h-741v-340h356q127 0 222 -34t157.5 -92.5t93.5 -137t31 -170.5t-32 -174t-94.5 -142.5t-157.5 -96.5t-220 -36h-592zM414 211q86 0 178 -1t178 1q68 0 118 18.5t84 51t51 75.5t17 90q0 98 -67.5 167t-202.5 69h-356v-471z" />
<glyph unicode="&#x412;" horiz-adv-x="1370" d="M178 0v1434h582q98 0 180 -25t142.5 -76t94 -127t33.5 -176q0 -92 -41 -163.5t-127 -112.5q113 -39 172.5 -124t59.5 -208q0 -96 -32 -174t-91 -133.5t-143 -85t-189 -29.5h-641zM416 209h389q100 0 164.5 54t68.5 159q0 109 -73 170q-41 31 -89.5 38t-97.5 7h-362v-428z M416 831h327q104 0 168 44.5t66 148.5q0 106 -64.5 154.5t-169.5 48.5h-327v-396z" />
<glyph unicode="&#x413;" horiz-adv-x="1062" d="M178 0v1434h854v-211h-614v-1223h-240z" />
<glyph unicode="&#x414;" horiz-adv-x="1515" d="M49 205h49q51 0 83 14t50.5 42t27.5 68t15 93l119 1012h889v-1229h154v-418h-222v213h-942v-213h-223v418zM426 199h625v1028h-451l-86 -815q-4 -27 -9 -57.5t-15.5 -60.5t-25.5 -54.5t-38 -40.5z" />
<glyph unicode="&#x415;" horiz-adv-x="1181" d="M178 0v1434h873v-209h-633v-379h598v-211h-598v-418h645v-217h-885z" />
<glyph unicode="&#x416;" horiz-adv-x="2050" d="M37 0v35q117 172 234.5 342t236.5 344q-72 63 -110 165.5t-70 219.5q-29 98 -86.5 137t-157.5 23v164q88 18 163 14t133 -35t98 -89t63 -149q10 -39 23.5 -86t31.5 -92t45 -84t64 -59q47 -27 95 -34t107 -7v625h236v-625q59 0 107 7t96 34q37 20 63.5 59t45 84t31.5 92.5 t23 85.5q20 90 61.5 148.5t100 89.5t133 35t162.5 -14v-164q-98 16 -156.5 -23t-89.5 -137q-16 -57 -32.5 -112.5t-37 -105.5t-47 -93t-61.5 -74q117 -174 234.5 -344t236.5 -342v-35h-270q-104 158 -205.5 313.5t-202.5 311.5q-47 -16 -93 -22.5t-99 -6.5v-596h-236v596 q-53 0 -98 6t-92 23q-102 -156 -203.5 -311.5t-206.5 -313.5h-270z" />
<glyph unicode="&#x417;" horiz-adv-x="1208" d="M72 438h213q0 -66 22.5 -115t62.5 -81.5t93 -49t112 -16.5q129 0 214 62.5t85 181.5q0 57 -23.5 103t-63 79t-94 50.5t-115.5 17.5h-103v192h100q49 0 92.5 14.5t77 41t53 63.5t19.5 82q0 51 -20.5 90t-54 65.5t-76.5 40t-91 13.5q-45 0 -87 -10.5t-74.5 -32t-53 -55 t-20.5 -80.5h-221q-2 98 34.5 167.5t101 114.5t147.5 66.5t173 21.5q104 0 190.5 -27.5t148 -79.5t95 -125t33.5 -163q0 -96 -47 -173t-133 -118q123 -47 187.5 -140t64.5 -230q0 -102 -38 -184.5t-107.5 -138.5t-169 -87t-224.5 -31q-111 0 -202.5 31t-159.5 90 t-104.5 147.5t-36.5 202.5z" />
<glyph unicode="&#x418;" horiz-adv-x="1533" d="M178 -2v1436h238v-523l-17 -438l871 965h86v-1438h-236v520l17 455l-877 -977h-82z" />
<glyph unicode="&#x419;" horiz-adv-x="1533" d="M178 -2v1436h238v-523l-17 -438l871 965h86v-1438h-236v520l17 455l-877 -977h-82zM471 1855l166 17q10 -68 57 -99.5t121 -33.5q72 0 123 29.5t63 103.5q35 -4 77 -8t77 -9q-12 -137 -95 -223t-243 -86q-154 0 -245 84t-101 225z" />
<glyph unicode="&#x41a;" horiz-adv-x="1402" d="M178 0v1434h240v-635q82 0 157.5 5t122.5 30q31 16 55.5 51t44 80t35 99t29.5 110q18 70 51 126t86.5 93t131 48t188.5 -9v-164q-53 4 -91 0t-65.5 -22.5t-46 -52.5t-35.5 -89q-33 -117 -73.5 -217.5t-112.5 -165.5l471 -686v-35h-270l-410 627q-23 -8 -57.5 -13.5 t-73.5 -7.5t-75 -2h-62v-604h-240z" />
<glyph unicode="&#x41b;" horiz-adv-x="1492" d="M37 4l4 176q68 -10 112 -1t70.5 35t39.5 70t20 105l112 1045h920v-1434h-240v1221h-469l-86 -840q-12 -125 -40.5 -206t-85 -125t-143.5 -54t-214 8z" />
<glyph unicode="&#x41c;" horiz-adv-x="1697" d="M178 0v1438h88l584 -742l582 742h88v-1438h-240v897l-414 -530h-32l-416 530v-897h-240z" />
<glyph unicode="&#x41d;" horiz-adv-x="1488" d="M178 0v1434h238v-576h655v576h240v-1434h-240v639h-655v-639h-238z" />
<glyph unicode="&#x41e;" horiz-adv-x="1648" d="M94 717q0 174 59.5 312t160 233.5t233.5 145.5t278 50q147 0 279.5 -50t232 -145.5t158.5 -233.5t59 -312q0 -164 -54 -300t-150.5 -234.5t-231.5 -153t-297 -54.5q-147 0 -279 50.5t-231.5 145.5t-158 232.5t-58.5 313.5zM336 717q0 -125 39 -221.5t104.5 -162 t154.5 -99t191 -33.5q100 0 189.5 33.5t157 99t106.5 162t39 221.5q0 123 -39 219t-105.5 162.5t-155.5 101.5t-190 35q-102 0 -191 -35t-155.5 -100.5t-105.5 -161.5t-39 -221z" />
<glyph unicode="&#x41f;" horiz-adv-x="1486" d="M178 0v1434h1131v-1434h-240v1217h-653v-1217h-238z" />
<glyph unicode="&#x420;" horiz-adv-x="1335" d="M178 0v1434h594q119 0 213 -41t159.5 -110t99.5 -161t34 -194q0 -100 -35 -190.5t-100.5 -159t-158.5 -108.5t-212 -40h-354v-430h-240zM414 639h358q61 0 111.5 22.5t87.5 62.5t57.5 94t20.5 116q0 61 -19.5 115.5t-56.5 93.5t-88 61.5t-113 22.5h-358v-588z" />
<glyph unicode="&#x421;" horiz-adv-x="1556" d="M94 715q0 174 59.5 310t159 230.5t231.5 144.5t279 50q104 0 209 -29.5t192 -89t152.5 -149.5t93.5 -211h-229q-53 135 -165.5 197.5t-254.5 64.5q-111 0 -200 -38t-153.5 -106.5t-99 -164t-34.5 -209.5q0 -106 34.5 -199.5t99 -163t154 -109.5t199.5 -40q147 0 263 71.5 t163 214.5h232q-27 -131 -92.5 -226t-154.5 -156.5t-195.5 -91t-215.5 -29.5q-145 0 -277 49t-232.5 142t-159 229.5t-58.5 308.5z" />
<glyph unicode="&#x422;" horiz-adv-x="1142" d="M39 1223v211h1065v-211h-416v-1223h-233v1223h-416z" />
<glyph unicode="&#x423;" horiz-adv-x="1286" d="M18 1405v29h263l378 -715h9l342 715h254v-25l-566 -1128q-43 -92 -93 -163t-117.5 -109t-155.5 -39t-205 46l33 187q111 -49 182.5 -17.5t120.5 138.5l76 153z" />
<glyph unicode="&#x424;" horiz-adv-x="1837" d="M113 719q0 150 57 256t152.5 175t221.5 102.5t263 37.5v148h223v-148q139 -4 265 -35.5t221.5 -99.5t151.5 -175.5t56 -260.5q0 -154 -57 -261.5t-152.5 -174t-222.5 -98t-264 -35.5v-152h-221v152q-137 4 -263 36.5t-221.5 101t-152.5 175t-57 256.5zM352 719 q0 -106 40 -175t104.5 -111t146.5 -59.5t166 -19.5v729q-86 -2 -169 -19t-146.5 -59t-102.5 -111t-39 -175zM1026 354q86 2 169 19.5t147.5 59.5t103.5 111t39 175t-39 175t-103.5 111t-146.5 59t-170 19v-729z" />
<glyph unicode="&#x425;" horiz-adv-x="1327" d="M23 0v33l497 725l-446 641v35h256l168 -263l161 -268h7l165 275l166 256h254v-35l-444 -641l496 -725v-33h-254l-201 311l-180 293h-9l-176 -287l-207 -317h-253z" />
<glyph unicode="&#x426;" horiz-adv-x="1517" d="M178 0v1434h240v-1217h618v1217h240v-1229h168v-412h-211v207h-1055z" />
<glyph unicode="&#x427;" horiz-adv-x="1314" d="M82 1206v226h242v-226q0 -160 31.5 -263t101 -156.5t179 -61.5t263.5 23v684h236v-1432h-236v524q-207 -35 -359.5 -16.5t-255 100.5t-152.5 229.5t-50 368.5z" />
<glyph unicode="&#x428;" horiz-adv-x="2111" d="M178 0v1434h240v-1217h516v1217h240v-1217h520v1217h239v-1434h-1755z" />
<glyph unicode="&#x429;" horiz-adv-x="2162" d="M178 0v1434h240v-1217h508v1217h237v-1217h516v1217h238v-1229h172v-412h-213v207h-1698z" />
<glyph unicode="&#x42a;" horiz-adv-x="1447" d="M39 1231v203h487v-469h351q119 0 214 -36t160.5 -100.5t101.5 -151.5t36 -192q0 -106 -36 -195t-101.5 -153.5t-161 -100.5t-213.5 -36h-586v1231h-252zM526 211q86 0 174 -1t177 1q61 0 112 20.5t87 57.5t55.5 87t19.5 109q0 57 -20.5 106.5t-56.5 85.5t-86 55.5 t-111 19.5h-351v-541z" />
<glyph unicode="&#x42b;" horiz-adv-x="1906" d="M178 0v1434h234v-72v-397h352q127 0 224 -44t161.5 -117t94.5 -168t20 -200q-8 -90 -46 -170t-102.5 -139t-153 -93t-198.5 -34h-586zM412 211q78 0 156.5 -1t156.5 -1q137 0 220 64.5t91 189.5q4 61 -14 113.5t-54 91.5t-88.5 61.5t-115.5 22.5h-66h-286v-541zM1491 0 v1434h238v-1434h-238z" />
<glyph unicode="&#x42c;" horiz-adv-x="1325" d="M178 0v1434h234v-469h352q119 0 212 -38t157.5 -103.5t99.5 -152.5t35 -186q0 -98 -35 -186t-99.5 -154.5t-157.5 -105.5t-212 -39h-586zM412 211q88 0 175 -1t177 1q61 0 111.5 20.5t87 57.5t56 87t19.5 109q-2 117 -76.5 192t-197.5 75h-352v-541z" />
<glyph unicode="&#x42d;" horiz-adv-x="1556" d="M72 487h233q47 -143 164 -215.5t264 -72.5q94 0 177 29.5t145.5 84t102.5 132t50 171.5h-571v199h575q-10 94 -48 172t-100.5 134.5t-145.5 86t-179 29.5q-141 -2 -252.5 -67.5t-167.5 -198.5h-231q29 123 94.5 213t153.5 150.5t192.5 89t210.5 28.5q147 0 278.5 -49 t230 -144.5t156.5 -231.5t58 -310t-59.5 -310.5t-159.5 -230.5t-233 -143t-279 -49q-111 0 -217 29.5t-195.5 91t-155 156.5t-91.5 226z" />
<glyph unicode="&#x42e;" horiz-adv-x="2195" d="M178 0v1434h240v-590h241q20 145 85 260t161 193.5t217 119.5t254 41q145 0 277.5 -50t232 -145.5t157.5 -233.5t58 -312q0 -176 -59.5 -314.5t-159.5 -233.5t-232 -145.5t-278 -50.5q-137 2 -261 46t-220 128t-159.5 204t-78.5 274h-235v-625h-240zM885 717 q0 -121 39 -216t105.5 -162t155.5 -102.5t189 -35.5t189.5 35.5t155 102.5t104.5 162t39 216q0 119 -39 214t-105.5 161.5t-155.5 101.5t-190 35q-102 0 -190 -36t-154.5 -101.5t-104.5 -160.5t-38 -214z" />
<glyph unicode="&#x42f;" horiz-adv-x="1396" d="M66 0v35l362 502q-135 47 -216 158.5t-83 262.5q0 96 34 183.5t98.5 152t156.5 102.5t209 38h592v-1434h-240v500h-315l-342 -500h-256zM360 965q0 -59 19.5 -108.5t55.5 -84.5t85 -55.5t109 -20.5h354v529h-354q-121 0 -195 -73t-74 -187z" />
<glyph unicode="&#x430;" horiz-adv-x="1124" d="M70 274q0 70 24.5 129.5t71.5 103.5t118.5 69.5t168.5 25.5q72 0 149.5 -13.5t142.5 -49.5v123q0 61 -33.5 98t-86 54t-117 18.5t-127 -7t-116.5 -24t-85 -29.5l-35 162q76 39 171.5 55.5t193.5 16.5q90 0 172 -16.5t144.5 -56.5t99.5 -107.5t37 -170.5v-389 q0 -35 1 -61.5t10 -44t29.5 -25.5t61.5 -4l4 -133q-59 -12 -109.5 -15t-88 13t-60.5 56t-25 114q-25 -49 -64.5 -84t-88.5 -57.5t-103.5 -32.5t-105.5 -10q-90 0 -155.5 24.5t-110.5 65.5t-66.5 93t-21.5 109zM289 289q0 -57 43 -96t137 -39q43 0 89 12t85 39.5t66.5 73.5 t35.5 116q-37 23 -112.5 40.5t-149.5 17.5q-80 0 -137 -42t-57 -122z" />
<glyph unicode="&#x431;" horiz-adv-x="1230" d="M109 719q12 139 65 256t152.5 206t255.5 144q31 10 68.5 25.5t68.5 37t45 51t0 66.5h205q20 -59 7 -111.5t-47 -95.5t-83 -74.5t-101 -52.5q-92 -35 -165.5 -65.5t-129 -71.5t-91 -98t-50.5 -145q23 39 60 72.5t84 58t100.5 40t108.5 15.5q117 4 206.5 -36t151 -108.5 t93.5 -160.5t32 -193q0 -104 -33 -195t-98.5 -159t-161.5 -106.5t-221 -38.5q-121 0 -212 34.5t-154.5 96t-99.5 143.5t-48 174q-20 152 -8 291zM328 481q0 -72 23.5 -129t64.5 -97t95 -60.5t118 -20.5q68 0 123 23.5t94 64.5t59.5 97.5t20.5 121.5q0 63 -22.5 118.5 t-61.5 96.5t-94.5 64.5t-122.5 23.5q-68 0 -123.5 -23.5t-94 -65.5t-59 -97.5t-20.5 -116.5z" />
<glyph unicode="&#x432;" horiz-adv-x="1089" d="M145 -2v991h379q68 0 143.5 -6t139 -31.5t104.5 -78t41 -144.5q0 -66 -30.5 -119t-104.5 -80q92 -25 140.5 -92t48.5 -157q0 -96 -39 -152.5t-100.5 -85.5t-137.5 -37t-149 -8h-435zM362 170h195q37 0 77 2t74.5 14.5t57 40t22.5 76.5q0 47 -23.5 75t-59 41t-77.5 16 t-81 3h-185v-268zM362 590h175q33 0 67.5 3t63 15.5t47 35t18.5 63.5t-18.5 64.5t-47 35.5t-63.5 15t-67 3h-175v-235z" />
<glyph unicode="&#x433;" horiz-adv-x="884" d="M145 0v987h695v-196h-478v-791h-217z" />
<glyph unicode="&#x434;" horiz-adv-x="1228" d="M51 174h4h21q55 0 87 24.5t50 67.5t26.5 100.5t18.5 122.5l72 498h696v-813h133l-6 -401h-192v227h-703v-227h-201zM371 174h440v627h-301l-47 -375q-16 -113 -34.5 -167t-57.5 -85z" />
<glyph unicode="&#x435;" horiz-adv-x="1128" d="M84 514q2 123 45 215t112.5 153.5t162 92.5t192.5 31q129 0 223 -43t149.5 -120t72 -181.5t-8.5 -227.5h-729q0 -68 24.5 -118t68.5 -81.5t102.5 -48t126.5 -16.5q94 0 182 11.5t176 49.5l29 -165q-86 -39 -182.5 -61.5t-190.5 -22.5q-123 -2 -226.5 33.5t-177 104 t-114.5 169t-37 225.5zM303 588h549q2 63 -18.5 109t-56.5 77t-83 45.5t-100 14.5q-111 0 -189.5 -64.5t-101.5 -181.5z" />
<glyph unicode="&#x436;" horiz-adv-x="1576" d="M53 0v25l301 481q-76 33 -124 83t-74.5 112.5t-34.5 134t-4 151.5h209q-4 -84 11 -155.5t56 -124t110.5 -81t178.5 -28.5v391h213v-391q106 0 178 28.5t115 81t59.5 124t12.5 155.5h202q4 -80 -4 -151.5t-35.5 -134t-77 -112.5t-124.5 -83l303 -481v-25h-226l-262 436 q-25 -6 -56.5 -10t-84.5 -4v-422h-213v422q-57 0 -87 4t-54 10l-265 -436h-223z" />
<glyph unicode="&#x437;" horiz-adv-x="1001" d="M74 76l12 188q25 -18 68 -36.5t94 -33t105.5 -23.5t103.5 -9q45 0 86 7t72.5 22.5t51 42t19.5 67.5q0 49 -23.5 77t-59.5 41t-79 16t-84 3h-145v154h135q35 0 71 3t64.5 15.5t46 36t17.5 66.5q0 39 -17.5 62.5t-45 37.5t-63.5 19.5t-73 5.5q-35 0 -77 -4.5t-84 -13.5 t-82 -22.5t-68 -29.5l-13 162q68 37 165.5 57.5t197.5 20.5q74 0 144.5 -13.5t126 -44t90 -83t34.5 -130.5q0 -76 -39 -131t-116 -76q96 -23 154.5 -88t58.5 -166q0 -84 -37 -141t-97.5 -92t-138.5 -51.5t-160 -16.5q-117 0 -229.5 28t-185.5 73z" />
<glyph unicode="&#x438;" horiz-adv-x="1196" d="M145 -2v989h217v-594l619 596h70v-989h-215v596l-629 -598h-62z" />
<glyph unicode="&#x439;" horiz-adv-x="1196" d="M145 -2v989h217v-594l619 596h70v-989h-215v596l-629 -598h-62zM319 1395l140 16q10 -66 55 -96.5t117 -32.5q70 0 119 28.5t61 100.5q35 -4 73 -8t70 -8q-10 -133 -98 -211t-223 -78q-127 0 -215 77t-99 212z" />
<glyph unicode="&#x43a;" horiz-adv-x="1124" d="M145 0v987h222v-393h102q92 0 156.5 28.5t104.5 80t57.5 124t17.5 162.5h213q0 -80 -11.5 -155.5t-40 -140t-79.5 -117t-127 -87.5l317 -466v-23h-233l-275 418q-23 -6 -51.5 -8t-52.5 -2h-98v-408h-222z" />
<glyph unicode="&#x43b;" horiz-adv-x="1220" d="M41 0l4 164q63 -10 101 -1t59.5 34.5t30 65.5t14.5 95l74 629h751v-987h-219v791h-340l-47 -441q-10 -115 -34.5 -190.5t-72 -116.5t-125 -50t-196.5 7z" />
<glyph unicode="&#x43c;" horiz-adv-x="1327" d="M145 0v987h70l447 -495l450 495h70v-987h-215v551l-295 -326h-21l-293 326v-551h-213z" />
<glyph unicode="&#x43d;" horiz-adv-x="1200" d="M145 0v987h215v-379h478v379h217v-987h-217v414h-478v-414h-215z" />
<glyph unicode="&#x43e;" horiz-adv-x="1210" d="M84 498q0 127 44 223t115.5 159.5t164 96.5t188.5 35q98 2 193.5 -30t170 -96.5t120.5 -161.5t46 -226t-45 -226.5t-118.5 -162t-167 -96t-191.5 -31.5t-191.5 31.5t-166 96t-117.5 162t-45 226.5zM305 498q0 -80 25.5 -140.5t68.5 -100.5t97.5 -59.5t111.5 -19.5 q55 0 108.5 20.5t94.5 60.5t66.5 99.5t25.5 139.5t-26.5 140t-69.5 100t-98.5 59.5t-112.5 17.5q-55 -2 -107.5 -22.5t-93.5 -59.5t-65.5 -98t-24.5 -137z" />
<glyph unicode="&#x43f;" horiz-adv-x="1196" d="M145 0v987h906v-987h-222v791h-458v-791h-226z" />
<glyph unicode="&#x440;" horiz-adv-x="1236" d="M80 995q61 12 114.5 12.5t91.5 -18t60.5 -57.5t22.5 -105q43 102 137 144.5t201 42.5q109 0 192.5 -42t140 -114t85 -165t28.5 -193q0 -119 -40 -215.5t-107.5 -164t-157.5 -101t-189 -29.5q-61 4 -124.5 22.5t-124.5 55.5v-576h-224v1180v74.5t-9 53t-30.5 32 t-64.5 10.5zM406 264q61 -43 126.5 -63.5t124.5 -16.5q55 2 104.5 23.5t86.5 61.5t58.5 97.5t21.5 133.5q0 61 -16.5 118.5t-50.5 100.5t-83 69.5t-116 26.5q-57 0 -104.5 -22.5t-81.5 -59.5t-52 -87t-18 -105v-277z" />
<glyph unicode="&#x441;" horiz-adv-x="1157" d="M84 498q0 127 45 224t117.5 161.5t166 98.5t189.5 34q80 0 158 -21.5t142.5 -65.5t111.5 -111.5t67 -158.5h-207q-33 80 -104.5 119t-157.5 39q-57 0 -112.5 -20.5t-98.5 -60.5t-69.5 -100.5t-26.5 -137.5q0 -80 26.5 -140.5t69.5 -100.5t97.5 -60.5t109.5 -20.5 q84 0 158 44t108 136h213q-18 -94 -66 -163.5t-113.5 -115.5t-143.5 -69.5t-160 -23.5q-96 0 -189 31.5t-167 96t-119 161t-45 225.5z" />
<glyph unicode="&#x442;" horiz-adv-x="948" d="M47 793v194h854v-194h-319v-791h-217v791h-318z" />
<glyph unicode="&#x443;" horiz-adv-x="1130" d="M27 963v24h239l307 -733h7l280 733h223v-24l-428 -1047q-45 -111 -95 -204t-116.5 -151.5t-154.5 -68.5t-211 45l24 162q66 -29 116 -29t87 24.5t64.5 71t50.5 107.5l47 121z" />
<glyph unicode="&#x444;" horiz-adv-x="1732" d="M88 496q0 162 54.5 276.5t146.5 173t213 56t256 -75.5v565h219v-565q133 74 254 76t213 -56.5t146.5 -173.5t54.5 -276q0 -160 -54.5 -275t-146.5 -173t-213 -56t-254 76v-570h-219v570q-135 -74 -256 -76t-213 56t-146.5 173t-54.5 275zM313 496q0 -109 38 -181.5 t100.5 -104.5t143.5 -21.5t169 71.5v473q-88 59 -169 70.5t-143.5 -21t-100.5 -106.5t-38 -180zM973 260q86 -61 167 -71.5t143.5 21.5t100 104.5t37.5 181.5q0 106 -37.5 180t-100 106.5t-143.5 21.5t-167 -71v-473z" />
<glyph unicode="&#x445;" horiz-adv-x="1042" d="M29 0v25l366 499l-311 439v24h213l113 -156l108 -167h6l107 163l117 160h225v-24l-324 -453l355 -485v-25h-216l-145 201l-115 184h-6l-121 -188l-147 -197h-225z" />
<glyph unicode="&#x446;" horiz-adv-x="1191" d="M145 0v987h213v-788h422v788h213v-811h129l-10 -399h-186v223h-781z" />
<glyph unicode="&#x447;" horiz-adv-x="1112" d="M74 758v229h225v-229q0 -102 47 -161.5t115.5 -80t147.5 -4.5t141 63v412h217v-987h-222v362q-123 -55 -243.5 -58t-216 46t-153.5 151.5t-58 256.5z" />
<glyph unicode="&#x448;" horiz-adv-x="1662" d="M145 0v987h215v-790h365v790h215v-790h365v790h213v-987h-1373z" />
<glyph unicode="&#x449;" horiz-adv-x="1718" d="M145 0v987h215v-790h365v790h215v-790h363v790h217v-813h129l-11 -401h-188v227h-1305z" />
<glyph unicode="&#x44a;" horiz-adv-x="1175" d="M47 803v184h440v-307h199q84 0 162 -17.5t138.5 -57.5t96 -105.5t35.5 -159.5q0 -92 -37 -157.5t-97 -105.5t-138 -58.5t-162 -18.5h-412v803h-225zM487 170h195q92 0 155.5 41t63.5 129t-63.5 129t-155.5 41h-195v-340z" />
<glyph unicode="&#x44b;" horiz-adv-x="1529" d="M145 0v987h215v-307h199q84 0 163 -17.5t139.5 -57.5t96 -105.5t35.5 -159.5q0 -92 -36.5 -157.5t-97 -105.5t-139.5 -58.5t-163 -18.5h-412zM360 170h195q90 0 155.5 41t65.5 129q0 45 -17.5 77t-48 52t-70.5 30.5t-85 10.5h-195v-340zM1176 0v989h208v-989h-208z" />
<glyph unicode="&#x44c;" horiz-adv-x="1050" d="M145 0v987h215v-307h199q84 0 163 -17.5t139.5 -57.5t96 -105.5t35.5 -159.5q0 -92 -36.5 -157.5t-97 -105.5t-139.5 -58.5t-163 -18.5h-412zM360 170h195q90 0 155.5 41t65.5 129t-65.5 129t-155.5 41h-195v-340z" />
<glyph unicode="&#x44d;" horiz-adv-x="1169" d="M68 358h215q33 -96 111.5 -141t164.5 -45q55 0 106.5 13.5t93.5 40t70.5 70.5t34.5 105h-401v172h401q-8 66 -34.5 112t-66.5 74.5t-90 42t-104 13.5q-84 -2 -163.5 -42t-114.5 -122l-211 2q18 90 67.5 158t116 112t146 65.5t159.5 21.5q98 0 190.5 -30t165 -92.5 t116.5 -160.5t44 -233q0 -137 -46 -235.5t-120.5 -161t-169 -91.5t-192.5 -29q-84 0 -164 24t-145.5 72t-113.5 118.5t-66 166.5z" />
<glyph unicode="&#x44e;" horiz-adv-x="1667" d="M145 0v987h217v-379h191q18 100 68.5 176t120 127.5t153.5 76t172 24.5q98 0 190.5 -34t165 -98.5t116.5 -161.5t44 -224q0 -129 -45 -226.5t-117.5 -162t-166 -96.5t-191.5 -32q-90 0 -177 27t-158 81t-119 136t-62 193h-185v-414h-217zM762 494q0 -80 25.5 -139.5 t68.5 -99.5t97.5 -59.5t109.5 -19.5t108.5 19.5t94.5 59.5t66.5 99.5t25.5 139.5t-25.5 139t-66.5 99t-94.5 60.5t-108.5 20.5t-109.5 -20.5t-97.5 -60.5t-68.5 -99t-25.5 -139z" />
<glyph unicode="&#x44f;" horiz-adv-x="1099" d="M66 0v25l258 333q-92 33 -152.5 114t-60.5 183q0 68 24.5 128.5t69.5 105.5t109.5 71.5t144.5 26.5h495v-987h-225v317h-186l-238 -317h-239zM334 651q0 -70 52 -112.5t136 -42.5h207v319h-207q-86 0 -137 -46t-51 -118z" />
<glyph unicode="&#x451;" horiz-adv-x="1128" d="M84 514q2 123 45 216t112.5 155.5t162 93.5t192.5 31q129 0 223 -41t149.5 -115t72 -176.5t-8.5 -224.5h-729q0 -68 24.5 -121t68.5 -90t102.5 -56.5t126.5 -19.5q92 -4 181 9t177 52l29 -166q-86 -39 -182.5 -61.5t-190.5 -22.5q-123 -2 -226.5 35t-177 106.5 t-114.5 170t-37 225.5zM225 1321q0 51 35 82t86 31q49 0 86 -31t37 -82q0 -49 -37 -79t-86 -30q-51 0 -86 30t-35 79zM307 610h545q2 55 -18.5 98.5t-55.5 72t-83 43t-101 14.5q-111 0 -187.5 -55.5t-99.5 -172.5zM688 1321q0 51 35 82t86 31t86 -31t35 -82q0 -49 -35 -79 t-86 -30t-86 30t-35 79z" />
<glyph unicode="&#x452;" horiz-adv-x="1206" d="M-12 1206v152h157v139h224v-139h301v-152h-301v-350q100 160 317 160q106 0 181 -36t122 -96.5t67.5 -139t20.5 -166.5v-367q0 -242 -106.5 -340t-329.5 -59q0 43 1 86t1 84q70 -10 112 0t64.5 39.5t29.5 77.5t7 114v365q-4 121 -65.5 187t-167.5 66q-53 0 -100.5 -22.5 t-81 -61t-53 -92t-19.5 -112.5v-543h-224v1206h-157z" />
<glyph unicode="&#x453;" horiz-adv-x="909" d="M145 0v987h719v-196h-502v-791h-217zM393 1159v21l168 309l193 -70v-18l-189 -242h-172z" />
<glyph unicode="&#x454;" horiz-adv-x="1169" d="M84 494q0 129 46 225t122 160.5t170 97.5t192 33q80 0 158 -21.5t141.5 -65.5t110.5 -112t66 -158l-211 -2q-35 82 -108 122t-157 42q-53 0 -104 -15.5t-92 -45t-70 -74.5t-37 -107h396v-161h-396q6 -59 34 -104.5t69 -75t91 -45t105 -15.5q86 0 165 45t112 141h215 q-18 -96 -66.5 -166.5t-114 -118.5t-146.5 -72t-163 -24q-98 0 -192 33t-169 97.5t-121 161t-46 225.5z" />
<glyph unicode="&#x455;" horiz-adv-x="1040" d="M76 291h219q2 -39 22.5 -66.5t52 -46t70.5 -28t80 -9.5t82 7.5t75 23.5t55.5 46t23.5 75q0 68 -61.5 94.5t-159.5 38.5q-76 10 -153 22.5t-139.5 40t-102.5 76.5t-42 133q0 80 36 137.5t94.5 96.5t134 57.5t155.5 18.5q86 0 163 -18.5t135 -56.5t91 -93.5t31 -128.5h-197 q0 37 -20.5 61.5t-52 39.5t-71.5 21.5t-79 6.5t-75.5 -9.5t-66.5 -27t-46.5 -43t-14.5 -58.5q2 -61 60.5 -82.5t175.5 -35.5q78 -10 151.5 -24.5t130 -45.5t91 -84t34.5 -141q0 -82 -36.5 -141.5t-96 -97.5t-137.5 -56.5t-160 -18.5t-160.5 14.5t-141 51.5t-103.5 97.5 t-47 152.5z" />
<glyph unicode="&#x456;" horiz-adv-x="518" d="M125 1292q0 66 42 98.5t93 32.5t92 -32.5t41 -98.5t-41 -98.5t-90 -34.5q-51 -2 -94 31.5t-43 101.5zM147 0v977h224v-977h-224z" />
<glyph unicode="&#x457;" horiz-adv-x="516" d="M-72 1323q0 55 38 88t93 33q53 0 92 -33t39 -88q0 -53 -39 -86t-92 -33q-55 0 -93 33t-38 86zM147 0v985h222v-985h-222zM326 1323q0 55 37.5 88t93.5 33q55 0 93 -33t38 -88q0 -53 -38 -86t-93 -33t-93 33t-38 86z" />
<glyph unicode="&#x458;" horiz-adv-x="516" d="M-84 -514l8 168q72 -10 116 0t67.5 40t31.5 78t8 113v1098h222v-1100q0 -252 -113 -345t-340 -52zM123 1292q0 66 41 97.5t90 33.5q51 2 94 -31.5t43 -99.5q0 -63 -41 -95t-90 -34q-51 -2 -94 30.5t-43 98.5z" />
<glyph unicode="&#x459;" horiz-adv-x="1605" d="M39 0l6 164q63 -10 101 -1t58.5 34.5t30 65.5t15.5 95l72 629h667v-307h141q84 0 160 -17.5t133.5 -57.5t91 -105.5t33.5 -159.5q0 -92 -33.5 -157.5t-92 -105.5t-134.5 -58.5t-160 -18.5h-354v791h-260l-47 -441q-10 -115 -33.5 -190.5t-72 -116.5t-126 -50t-196.5 7z M989 170h137q92 0 150.5 41t58.5 129t-58 129t-151 41h-137v-340z" />
<glyph unicode="&#x45a;" horiz-adv-x="1576" d="M145 0v987h217v-340h383v340h216v-332h141q84 0 159.5 -15t133 -53t91.5 -101.5t34 -157.5q0 -92 -34 -155.5t-92.5 -101.5t-134 -54.5t-159.5 -16.5h-355v453h-383v-453h-217zM961 170h137q92 0 150.5 35t58.5 123t-58.5 122.5t-150.5 34.5h-137v-315z" />
<glyph unicode="&#x45b;" horiz-adv-x="1208" d="M-10 1206v152h155v139h224v-139h301v-152h-301v-352q57 82 134 118t171 38q197 0 300 -114t103 -318v-578h-221v578q-4 119 -65.5 182t-167.5 63q-53 0 -100.5 -21.5t-81 -59t-53 -89t-19.5 -110.5v-543h-224v1206h-155z" />
<glyph unicode="&#x45c;" horiz-adv-x="1120" d="M145 2v985h222v-393h102q92 0 156.5 28.5t104.5 80t57.5 124t17.5 162.5h213q0 -80 -11.5 -154.5t-40 -138t-79.5 -115t-127 -85.5l305 -471v-23h-227l-269 424q-23 -6 -51.5 -8t-52.5 -2h-98v-414h-222zM455 1159v21l168 309l192 -70v-18l-188 -242h-172z" />
<glyph unicode="&#x45e;" horiz-adv-x="1130" d="M27 963v24h239l307 -731h7l280 731h223v-24l-428 -1047q-45 -111 -95 -205t-116.5 -152.5t-154.5 -69.5t-211 44l24 166q66 -29 116 -29t87 24.5t64.5 71t50.5 107.5l47 121zM252 1427l139 17q10 -66 55.5 -96.5t116.5 -32.5q70 0 119 28.5t61 100.5q35 -4 73 -8t71 -9 q-10 -133 -98.5 -210.5t-223.5 -77.5q-127 0 -215 76.5t-98 211.5z" />
<glyph unicode="&#x45f;" horiz-adv-x="1198" d="M145 0v987h224v-790h458v790h226v-987h-351v-209h-206v209h-351z" />
<glyph unicode="&#x490;" horiz-adv-x="1062" d="M178 0v1434h664v213h190v-424h-616v-1223h-238z" />
<glyph unicode="&#x491;" horiz-adv-x="909" d="M145 0v987h531v197h188v-393h-499v-791h-220z" />
<glyph unicode="&#x2000;" />
<glyph unicode="&#x2001;" horiz-adv-x="1905" />
<glyph unicode="&#x2002;" />
<glyph unicode="&#x2003;" horiz-adv-x="1905" />
<glyph unicode="&#x2004;" horiz-adv-x="635" />
<glyph unicode="&#x2005;" horiz-adv-x="476" />
<glyph unicode="&#x2006;" horiz-adv-x="317" />
<glyph unicode="&#x2007;" horiz-adv-x="317" />
<glyph unicode="&#x2008;" horiz-adv-x="238" />
<glyph unicode="&#x2009;" horiz-adv-x="381" />
<glyph unicode="&#x200a;" horiz-adv-x="105" />
<glyph unicode="&#x2010;" d="M131 586v192h690v-192h-690z" />
<glyph unicode="&#x2011;" d="M131 586v192h690v-192h-690z" />
<glyph unicode="&#x2012;" d="M131 586v192h690v-192h-690z" />
<glyph unicode="&#x2013;" horiz-adv-x="1112" d="M131 586v192h850v-192h-850z" />
<glyph unicode="&#x2014;" horiz-adv-x="1292" d="M131 586v192h1030v-192h-1030z" />
<glyph unicode="&#x2018;" horiz-adv-x="489" d="M111 1163q4 33 14 58l70 217h135l-45 -158q41 -12 67.5 -44t26.5 -79q0 -57 -38 -91t-95 -34q-47 0 -82 23.5t-47 64.5q-6 20 -6 43z" />
<glyph unicode="&#x2019;" horiz-adv-x="493" d="M115 1319q0 57 39 91t96 34q45 0 80 -23.5t49 -64.5q2 -10 4 -21.5t0 -21.5q-2 -16 -4 -28.5t-8 -29.5l-70 -217h-135l45 160q-41 10 -68.5 42t-27.5 79z" />
<glyph unicode="&#x201a;" horiz-adv-x="526" d="M129 96q0 57 39 91t96 34q45 0 80 -22.5t47 -63.5q6 -22 6 -45q-2 -16 -5 -28.5t-7 -28.5q-20 -55 -37.5 -110.5t-34.5 -110.5h-135l47 163q-41 10 -68.5 42t-27.5 79z" />
<glyph unicode="&#x201c;" horiz-adv-x="880" d="M113 1161q0 29 12 58l70 219h135l-45 -160q41 -12 68.5 -43t27.5 -78q0 -59 -39 -93t-96 -34q-47 0 -82 23.5t-47 64.5q-6 27 -4 43zM502 1161q2 16 4 29.5t8 28.5l70 219h137l-47 -160q41 -12 68.5 -43t27.5 -78q0 -59 -39 -93t-96 -34q-47 0 -82 23.5t-45 64.5 q-6 20 -6 43z" />
<glyph unicode="&#x201d;" horiz-adv-x="888" d="M115 1319q0 57 39 91t96 34q45 0 80 -23.5t49 -64.5q2 -10 4 -21.5t0 -21.5q-2 -16 -4 -28.5t-8 -29.5l-70 -217h-135l45 160q-41 10 -68.5 42t-27.5 79zM510 1319q0 57 39 91t96 34q45 0 80 -23.5t47 -64.5q6 -23 6 -43q-2 -16 -4 -28.5t-8 -29.5l-70 -217h-137l47 160 q-41 10 -68.5 42t-27.5 79z" />
<glyph unicode="&#x201e;" horiz-adv-x="913" d="M129 96q0 57 39 91t96 34q100 0 129 -86q6 -27 4 -45q0 -16 -4 -28.5t-8 -28.5q-18 -53 -35.5 -108.5t-36.5 -110.5h-135l47 161q-41 10 -68.5 42t-27.5 79zM516 96q0 57 38 91t95 34q47 0 82 -22.5t47 -63.5q6 -22 6 -45q-4 -33 -14 -57q-18 -53 -35.5 -108.5 t-36.5 -110.5h-135l47 161q-41 10 -67.5 42t-26.5 79z" />
<glyph unicode="&#x2020;" horiz-adv-x="956" d="M72 766v188h305v490h203v-490h305v-188h-305v-936h-203v936h-305z" />
<glyph unicode="&#x2021;" horiz-adv-x="1067" d="M111 283v184h317v362h-317v187h317v428h203v-428h323v-187h-323v-362h323v-184h-323v-453h-203v453h-317z" />
<glyph unicode="&#x2022;" horiz-adv-x="849" d="M164 733q0 55 20.5 100.5t56 77t84 49t101.5 17.5t100 -17.5t83 -49t56.5 -77t20.5 -100.5q0 -53 -20.5 -97t-56.5 -77t-83 -50t-100 -17t-101.5 17t-84 50t-56 77t-20.5 97z" />
<glyph unicode="&#x2026;" horiz-adv-x="1499" d="M129 102q0 59 40 94t97 35t97 -34.5t40 -94.5q0 -57 -40 -92t-97 -35t-97 35t-40 92zM608 102q0 59 40 94t97 35t97.5 -34.5t40.5 -94.5q0 -57 -40.5 -92t-97.5 -35t-97 35t-40 92zM1094 102q0 59 41 94t96 35q59 0 99 -34.5t40 -94.5q0 -57 -40 -92t-99 -35 q-55 0 -96 35t-41 92z" />
<glyph unicode="&#x202f;" horiz-adv-x="381" />
<glyph unicode="&#x2030;" horiz-adv-x="2596" d="M74 1106q0 119 52 197.5t131 117.5t170 39t170 -39t131 -117.5t52 -197.5t-52 -197t-131 -117.5t-170 -39.5t-170 39.5t-131 117.5t-52 197zM254 1106q0 -66 25.5 -109t64.5 -64.5t83 -21.5t83 21.5t64.5 64.5t25.5 109t-25.5 108.5t-64.5 64t-83 21.5t-83 -21.5 t-64.5 -64t-25.5 -108.5zM436 0l705 1432h219l-705 -1432h-219zM1018 322q0 117 52 195.5t130 117.5t170 39t170 -39t130 -117.5t52 -195.5q0 -119 -52 -198t-130 -118t-170 -39t-170 39t-130 118t-52 198zM1196 322q0 -66 25.5 -109t64.5 -64.5t83 -21.5t83 21.5t64.5 64.5 t25.5 109q0 63 -25.5 106t-64.5 64.5t-83 21.5t-83 -21.5t-64.5 -64.5t-25.5 -106zM1821 322q0 117 52 195.5t130 117.5t170 39t170 -39t130 -117.5t52 -195.5q0 -119 -52 -198t-130 -118t-170 -39t-170 39t-130 118t-52 198zM1999 322q0 -66 25.5 -109t64.5 -64.5t83 -21.5 t83 21.5t64.5 64.5t25.5 109q0 63 -25.5 106t-64.5 64.5t-83 21.5t-83 -21.5t-64.5 -64.5t-25.5 -106z" />
<glyph unicode="&#x2039;" horiz-adv-x="655" d="M98 709l293 479l144 -53l-207 -426l207 -422l-144 -54z" />
<glyph unicode="&#x203a;" horiz-adv-x="655" d="M121 287l207 422l-207 426l143 53l293 -479l-293 -476z" />
<glyph unicode="&#x2044;" horiz-adv-x="1009" d="M0 -123l782 1616h232l-785 -1616h-229z" />
<glyph unicode="&#x205f;" horiz-adv-x="476" />
<glyph unicode="&#x20ac;" horiz-adv-x="1337" d="M90 512v141h143q-2 35 -1 69t6 69h-148v141h168q33 123 99.5 219t157.5 162.5t201.5 100.5t233.5 34q139 0 267 -47l-72 -189q-88 35 -187 35q-166 2 -283.5 -86t-166.5 -229h483l-47 -141h-475q-4 -35 -5 -69t3 -69h432l-47 -141h-354q45 -143 161.5 -232.5t294.5 -89.5 q127 0 230 54l78 -195q-72 -35 -152 -50t-162 -15q-133 0 -248.5 34.5t-206 102t-151.5 166t-88 225.5h-164z" />
<glyph unicode="&#x2122;" horiz-adv-x="1556" d="M141 1300v136h521v-136h-183v-436h-151v436h-187zM756 864v572h78l241 -269l240 269h78v-572h-152v307l-162 -188h-10l-162 188v-307h-151z" />
<glyph unicode="&#x25fc;" horiz-adv-x="983" d="M0 0v983h983v-983h-983z" />
</font>
</defs>
</svg>
