<?xml version="1.0" standalone="no"?>
<!DOCTYPE svg PUBLIC "-//W3C//DTD SVG 1.1//EN" "http://www.w3.org/Graphics/SVG/1.1/DTD/svg11.dtd" >
<svg xmlns="http://www.w3.org/2000/svg" xmlns:xlink="http://www.w3.org/1999/xlink" version="1.1">
<metadata></metadata>
<defs>
<font id="intro_blackregular" horiz-adv-x="972" >
<font-face units-per-em="2048" ascent="1536" descent="-512" />
<missing-glyph horiz-adv-x="489" />
<glyph horiz-adv-x="0" />
<glyph unicode="&#xd;" horiz-adv-x="681" />
<glyph unicode=" "  horiz-adv-x="489" />
<glyph unicode="&#x09;" horiz-adv-x="489" />
<glyph unicode="&#xa0;" horiz-adv-x="489" />
<glyph unicode="!" horiz-adv-x="665" d="M127 1438h408l-23 -1041h-354zM133 156q0 84 57.5 136t143.5 52q88 0 145.5 -52t57.5 -136t-57.5 -135.5t-145.5 -51.5q-86 0 -143.5 51.5t-57.5 135.5z" />
<glyph unicode="&#x22;" horiz-adv-x="884" d="M131 913v521h277l-43 -521h-234zM502 913v521h276l-43 -521h-233z" />
<glyph unicode="#" horiz-adv-x="1486" d="M86 346v242h221l33 211h-188v243h225l59 390h307l-55 -390h240l59 390h307l-55 -390h156v-243h-191l-30 -211h153v-242h-188l-49 -346h-322l53 346h-233l-47 -346h-324l53 346h-184zM610 580h256l35 229h-258z" />
<glyph unicode="$" horiz-adv-x="1333" d="M80 440h360q0 -51 39 -87t99 -48v279q-207 18 -344.5 118.5t-137.5 294.5q0 205 136.5 325t345.5 140v142h182v-148q193 -27 320.5 -146.5t123.5 -312.5h-350q0 82 -94 121v-252q113 -14 195.5 -38.5t154.5 -72.5t109.5 -131t37.5 -198q0 -193 -142 -310.5t-355 -144.5 v-143h-182v141q-217 27 -357.5 146.5t-140.5 324.5zM467 1006q0 -47 27 -73t84 -44v239q-111 -31 -111 -122zM760 307q123 39 123 119q0 106 -123 137v-256z" />
<glyph unicode="%" horiz-adv-x="1972" d="M70 1090q0 104 42 186t109.5 124t148.5 61.5t162.5 0t149.5 -61.5t110 -124t42 -186q0 -121 -56.5 -210t-141.5 -129t-184.5 -40t-184.5 40t-141 129t-56 210zM348 1089.5q0 -65.5 33 -101.5t72 -36t71.5 36t32.5 101.5t-32.5 102.5t-71.5 37t-72 -37t-33 -102.5zM465 0 l704 1432h338l-706 -1432h-336zM1141 338q0 121 56 210t141 129t183.5 40t183.5 -40t141.5 -129t56.5 -210t-56.5 -210t-141.5 -129t-183.5 -40t-183.5 40t-141 129t-56 210zM1415 338q0 -88 52.5 -124t105.5 0t53 124q0 66 -32.5 101.5t-72.5 35.5t-73 -35.5t-33 -101.5z " />
<glyph unicode="&#x26;" horiz-adv-x="1331" d="M90 449q2 115 54.5 212t146.5 152q-33 31 -60 70q-59 90 -55 192q0 154 126 268.5t341 114.5q199 0 324.5 -98.5t117.5 -286.5h-317q0 39 -36 63.5t-81 24.5q-55 0 -92 -30.5t-37 -81.5q0 -33 15 -54q29 -55 110 -55h60v-303h-64q-86 0 -136 -52.5t-50 -124t49 -123.5 t137 -52q82 0 134 49t52 129v481h433v-307h-127v-174q0 -225 -131.5 -356.5t-360.5 -131.5q-274 0 -416.5 141.5t-136.5 332.5z" />
<glyph unicode="'" horiz-adv-x="514" d="M131 913v521h277l-43 -521h-234z" />
<glyph unicode="(" horiz-adv-x="774" d="M69 577.5q1 239.5 61 449.5t191.5 377.5t313.5 235.5l108 -208q-119 -57 -199.5 -233.5t-101 -400t-1 -446.5t100.5 -398t201 -228l-108 -211q-184 68 -316.5 235.5t-191.5 377.5t-58 449.5z" />
<glyph unicode=")" horiz-adv-x="774" d="M31 -274q121 53 201.5 228t100 398t-1 446.5t-101 400t-199.5 233.5l108 208q182 -68 313.5 -235.5t192 -377.5t61.5 -449.5t-58.5 -449.5t-191.5 -378t-317 -235z" />
<glyph unicode="*" horiz-adv-x="911" d="M84 1133l74 239l188 -74l-22 187h264l-25 -187l185 74l79 -237l-194 -43l143 -154l-215 -156l-104 166l-105 -168l-211 160l142 147z" />
<glyph unicode="+" horiz-adv-x="1044" d="M125 600v297h258v244h276v-244h263v-297h-263v-244h-276v244h-258z" />
<glyph unicode="," horiz-adv-x="602" d="M98 150q0 84 57.5 136t145.5 52q86 0 143.5 -52t57.5 -136q0 -37 -15 -72l-96 -295h-203l54 186q-63 18 -103.5 65.5t-40.5 115.5z" />
<glyph unicode="-" d="M117 532v299h739v-299h-739z" />
<glyph unicode="." horiz-adv-x="602" d="M98 149.5q0 83.5 58.5 136t144.5 52.5q88 0 145.5 -52.5t57.5 -136t-57.5 -135t-145.5 -51.5q-86 0 -144.5 51.5t-58.5 135z" />
<glyph unicode="/" horiz-adv-x="1157" d="M53 2l692 1432h359l-692 -1432h-359z" />
<glyph unicode="0" horiz-adv-x="1327" d="M127 463v504q0 227 154 360t385 133q229 0 381.5 -133t152.5 -360v-504q0 -227 -152.5 -360.5t-381.5 -133.5q-231 0 -385 133.5t-154 360.5zM477 469q0 -84 52.5 -128t136.5 -44q82 0 134 45t52 127v489q0 84 -52 130.5t-134 46.5q-84 0 -136.5 -46.5t-52.5 -130.5v-489 z" />
<glyph unicode="1" horiz-adv-x="974" d="M102 0v287h224v854h-195v293h553v-1147h229v-287h-811z" />
<glyph unicode="2" horiz-adv-x="1132" d="M82 0v80l498 729q51 78 71.5 148.5t-6 123t-104.5 54.5q-55 2 -94 -35t-39 -105h-310q-4 219 119 343t340 124q141 0 248.5 -66.5t156 -169t35 -235.5t-99.5 -260q0 -16 -279 -399h404v-332h-940z" />
<glyph unicode="3" horiz-adv-x="1183" d="M84 436h328q0 -68 43 -104.5t116.5 -36.5t115.5 48t44 124q-2 78 -35.5 125t-86 60.5t-117 16.5t-125.5 -7v47l213 421h-441v304h914v-54l-262 -483q293 -78 292 -428q0 -199 -135 -347.5t-370 -148.5q-213 0 -351.5 126t-142.5 337z" />
<glyph unicode="4" horiz-adv-x="1245" d="M43 248v162l578 1003h393v-864h125v-301h-125v-268h-338v268h-633zM451 535h249v229l19 244h-4z" />
<glyph unicode="5" horiz-adv-x="1198" d="M106 436h326q2 -139 160 -139q72 0 115 48t43 122q0 186 -308 199q-72 2 -113.5 1t-104 -6.5t-83.5 -5.5v779h895v-312h-590v-178q78 4 117 4q541 -10 541 -481q0 -197 -134 -346.5t-370 -149.5q-213 0 -351 127t-143 338z" />
<glyph unicode="6" horiz-adv-x="1263" d="M84 467q0 154 94 315l397 664h408l-305 -518q4 2 20 2q221 12 353.5 -114t132.5 -349q0 -242 -151.5 -367t-399.5 -125q-246 0 -397.5 125t-151.5 367zM451 467q0 -176 182 -176q180 0 180 176q0 180 -180 180q-182 0 -182 -180z" />
<glyph unicode="7" horiz-adv-x="1130" d="M70 1106v328h1054v-54l-585 -1380h-375l461 1106h-555z" />
<glyph unicode="8" horiz-adv-x="1275" d="M88 453q0 227 186 364q-92 106 -96 240q-4 160 118 280.5t343 120.5q219 0 340 -117.5t121 -277.5q-1 -137 -99 -248q176 -129 187 -358q4 -193 -141.5 -337.5t-407.5 -144.5q-260 0 -405.5 142.5t-145.5 335.5zM455 463q0 -74 48 -126t136 -52q86 0 135 54t49 130 t-49 131t-135 55q-88 0 -136 -57t-48 -135zM504 1044q0 -51 35.5 -85.5t99 -34.5t98.5 36.5t35 88.5q0 47 -36 82.5t-97 35.5q-66 0 -100.5 -36.5t-34.5 -86.5z" />
<glyph unicode="9" horiz-adv-x="1261" d="M78 979q0 242 151.5 366.5t399.5 124.5q246 0 397.5 -124.5t151.5 -366.5q0 -160 -101 -326l-393 -653h-405l321 518q-2 0 -11 -1t-16 -1q-229 -8 -362 114t-133 349zM446 979q0 -180 183 -180q180 0 180 180q0 176 -180 176q-182 0 -183 -176z" />
<glyph unicode=":" horiz-adv-x="655" d="M125 149.5q0 83.5 58.5 136t144.5 52.5q88 0 145 -52.5t57 -136t-57 -135t-145 -51.5q-86 0 -144.5 51.5t-58.5 135zM125 764q0 84 58.5 136t144.5 52q88 0 145 -52t57 -136t-57 -135t-145 -51q-86 0 -144.5 51t-58.5 135z" />
<glyph unicode=";" horiz-adv-x="655" d="M125 150q0 84 57.5 136t145.5 52q86 0 143 -52t57 -136q0 -37 -14 -72l-96 -295h-203l53 186q-63 18 -103 65.5t-40 115.5zM125 764q0 84 58.5 136t144.5 52q88 0 145 -52t57 -136t-57 -135t-145 -51q-86 0 -144.5 51t-58.5 135z" />
<glyph unicode="&#x3c;" horiz-adv-x="1150" d="M82 575v256l915 381v-305l-514 -205l514 -202v-305z" />
<glyph unicode="=" horiz-adv-x="1140" d="M133 313v287h875v-287h-875zM133 766v287h875v-287h-875z" />
<glyph unicode="&#x3e;" horiz-adv-x="1150" d="M154 195v305l514 202l-514 205v305l915 -381v-256z" />
<glyph unicode="?" horiz-adv-x="1101" d="M70 981q-4 219 125 340t329 125q217 4 350.5 -121t133.5 -311q0 -84 -31 -156t-75 -123t-87 -101t-70.5 -109.5t-23.5 -127.5h-363q-8 90 16.5 163t68.5 124t90.5 97t82 104.5t39.5 122.5q2 53 -41 82.5t-98 29.5q-59 -2 -99 -36.5t-40 -102.5h-307zM336 156 q0 84 58.5 136t146.5 52t143 -52t55 -136t-56 -135.5t-142 -51.5q-88 0 -146.5 51.5t-58.5 135.5z" />
<glyph unicode="@" horiz-adv-x="1935" d="M94 492q37 387 310.5 633.5t660.5 246.5q401 0 614 -236.5t176 -635.5q-12 -137 -62 -247t-123 -174.5t-154.5 -98t-167.5 -33.5q-92 0 -148.5 48t-50.5 132v12q-90 -158 -283 -168q-217 -4 -324.5 147.5t-86.5 373.5q25 256 200.5 393t436.5 133q96 -4 214.5 -47 t190.5 -103l-51 -561q-8 -111 39 -110q57 0 105 87t61 216q27 319 -130 492t-477 173q-301 0 -509.5 -187t-233.5 -486q-18 -190 37 -340t165.5 -228t267.5 -91t339 67l-18 -197q-178 -57 -337 -59t-288 61.5t-218 171t-131 267t-24 348.5zM805 492q-8 -90 26.5 -151.5 t120.5 -57.5q70 2 116 53t50 121q4 31 8 74.5t8.5 98.5t6.5 75q-61 27 -119 26q-88 -6 -147.5 -68.5t-69.5 -170.5z" />
<glyph unicode="A" horiz-adv-x="1433" d="M-25 0v51l658 1397h172l651 -1397v-51h-387l-84 178h-536l-82 -178h-392zM569 492h297l-149 346z" />
<glyph unicode="B" horiz-adv-x="1380" d="M156 8v1432h632q201 0 327 -121t126 -320q0 -68 -32.5 -136t-86.5 -111q86 -43 132 -125t46 -183q0 -190 -119.5 -313t-334.5 -123h-690zM530 334h289q98 0 111 110v10q0 67 -51 103q-33 14 -62 14h-287v-237zM530 874h232q51 0 79.5 33t30.5 80v6q0 47 -28 83 q-30 38 -82 38h-232v-240z" />
<glyph unicode="C" horiz-adv-x="1556" d="M80 715q0 178 62.5 321.5t167 231.5t233.5 134t270 46q156 0 294 -53.5t245.5 -180.5t134.5 -309h-361q-72 205 -313 205q-162 0 -260 -107.5t-98 -285.5q0 -160 99 -274.5t259 -114.5q121 0 205 57t112 170h361q-27 -195 -133.5 -327t-244.5 -187t-300 -55 q-139 0 -269 47t-234.5 135t-167 230.5t-62.5 316.5z" />
<glyph unicode="D" horiz-adv-x="1488" d="M156 0v1432h546q223 0 388 -105.5t242 -263.5t77 -340v-12q0 -131 -42 -253q-44 -128 -130 -231.5t-224.5 -165t-310.5 -61.5h-546zM530 338h168q160 0 248 112.5t88 268.5q0 152 -89 264.5t-247 112.5h-168v-758z" />
<glyph unicode="E" horiz-adv-x="1171" d="M154 0v1434h895v-326h-521v-205h480v-328h-480v-233h539v-342h-913z" />
<glyph unicode="F" horiz-adv-x="1118" d="M154 0v1434h895v-326h-521v-317h459v-328h-459v-463h-374z" />
<glyph unicode="G" horiz-adv-x="1568" d="M78 715q0 236 110.5 407.5t274.5 250.5t352 79q150 0 281 -49t235.5 -164t141.5 -281h-365q-47 84 -116.5 121t-176.5 37q-168 0 -263 -114.5t-95 -284.5q0 -180 97 -286.5t261 -106.5q117 0 188.5 37.5t120.5 136.5h-305v315h676q4 -60 4 -114q0 -174 -43 -302 q-74 -213 -249 -314t-392 -101q-139 0 -269 47t-235.5 135t-169 231.5t-63.5 319.5z" />
<glyph unicode="H" horiz-adv-x="1501" d="M154 0v1434h374v-519h445v519h375v-1434h-375v573h-445v-573h-374z" />
<glyph unicode="I" horiz-adv-x="935" d="M98 0v303h183v827h-166v304h706v-304h-166v-827h183v-303h-740z" />
<glyph unicode="J" horiz-adv-x="1284" d="M47 473v186h348v-180q0 -82 53.5 -125t139.5 -43q84 0 132 42t48 126v633h-211v322h586v-961q0 -227 -161 -360t-392 -133q-233 0 -388 133t-155 360z" />
<glyph unicode="K" horiz-adv-x="1480" d="M154 0v1434h374v-562q166 0 209 23q45 23 69.5 83t59.5 208q37 147 161 221q75 45 189 45q76 0 168 -20v-252q-12 1 -23 1q-125 0 -151 -104q-74 -268 -176 -381l410 -641v-55h-424l-313 553q-43 -6 -179 -6v-547h-374z" />
<glyph unicode="L" horiz-adv-x="1081" d="M154 0v1434h374v-1098h519v-336h-893z" />
<glyph unicode="M" horiz-adv-x="1710" d="M154 0v1438h133l569 -621l567 621h133v-1438h-374v662l-305 -320h-43l-306 320v-662h-374z" />
<glyph unicode="N" horiz-adv-x="1546" d="M154 0v1440h116l748 -707v701h375v-1438h-111l-754 743v-739h-374z" />
<glyph unicode="O" horiz-adv-x="1626" d="M78 717q0 238 108.5 410.5t273.5 253.5t357 81q139 0 269.5 -48t233.5 -138t165.5 -234.5t62.5 -324.5q0 -328 -205.5 -536t-531.5 -208q-145 0 -275 47.5t-233.5 137.5t-164 234.5t-60.5 324.5zM453 717q0 -182 106.5 -285.5t253.5 -103.5q145 0 253 103.5t108 285.5 t-106.5 285.5t-250.5 103.5q-152 0 -258 -101.5t-106 -287.5z" />
<glyph unicode="P" horiz-adv-x="1347" d="M156 2v1434h632q244 0 382 -161q134 -156 133 -366v-12q0 -213 -136.5 -368.5t-378.5 -155.5h-258v-371h-374zM524 698h264q70 0 113 62.5t43 146.5q0 82 -41 142.5t-115 60.5h-264v-412z" />
<glyph unicode="Q" horiz-adv-x="1628" d="M78 717q0 336 202.5 540.5t532.5 204.5q139 0 269 -48t234.5 -138t167 -234.5t62.5 -324.5q0 -248 -110 -422l149 -256v-55h-338l-55 94q-181 -98 -379 -98h-16q-190 4 -352 89t-264.5 256t-102.5 392zM453 717q0 -182 106.5 -285.5t253.5 -103.5q145 0 251.5 102 t106.5 286.5t-106.5 287t-253.5 102.5t-252.5 -103.5t-105.5 -285.5z" />
<glyph unicode="R" horiz-adv-x="1425" d="M156 2v1434h630q244 0 380.5 -151.5t136.5 -356.5q-4 -275 -213 -418l280 -455v-53h-397l-246 449h-197v-449h-374zM524 756h260q74 0 115 53t41 127t-40 124t-116 50h-260v-354z" />
<glyph unicode="S" horiz-adv-x="1329" d="M82 440h356q0 -70 67.5 -108.5t160.5 -38.5q86 0 152.5 37t66.5 98q0 33 -11.5 58.5t-36 41t-44 24.5t-59.5 14l-56 7t-57 5q-104 6 -193.5 30.5t-166.5 71.5t-121 128t-44 189q0 223 162 346t395 123q143 0 267 -50t205 -160q79 -107 79 -252v-7h-350q-2 70 -57.5 105 t-137.5 35q-194 0 -194 -130q0 -69 52 -95.5t167 -39.5q102 -8 178 -22t154 -46t127 -78t80.5 -123t31.5 -177q0 -213 -174 -336t-411 -123q-246 0 -419 123q-169 120 -169 340v10z" />
<glyph unicode="T" horiz-adv-x="1142" d="M39 1106v328h1065v-328h-350v-1106h-363v1106h-352z" />
<glyph unicode="U" horiz-adv-x="1445" d="M141 473v961h375v-953q0 -84 61.5 -127t149.5 -43q84 0 145.5 43t61.5 127v953h371v-961q0 -229 -170 -360t-410 -131q-242 0 -413 131t-171 360z" />
<glyph unicode="V" horiz-adv-x="1388" d="M-6 1378v56h399l180 -426l121 -375h6l117 375l176 426h400v-56l-619 -1392h-156z" />
<glyph unicode="W" horiz-adv-x="1947" d="M12 1378v56h394l135 -392l108 -417h6l242 784h154l252 -784h6l100 417l133 392h393v-56l-512 -1392h-198l-248 655h-6l-238 -655h-209z" />
<glyph unicode="X" horiz-adv-x="1415" d="M18 0v53l465 707l-415 618v56h405l232 -392h8l231 392h404v-56l-414 -618l463 -707v-53h-418l-264 449h-13l-262 -449h-422z" />
<glyph unicode="Y" horiz-adv-x="1312" d="M-12 1378v56h401l260 -476h17l260 476h397v-56l-479 -811v-567h-375v567z" />
<glyph unicode="Z" horiz-adv-x="1257" d="M49 0v53l578 1055h-527v326h1076v-56l-576 -1044h582v-334h-1133z" />
<glyph unicode="[" horiz-adv-x="716" d="M137 -406v1999h500v-280h-176v-1409h176v-310h-500z" />
<glyph unicode="\" horiz-adv-x="1157" d="M53 1434h359l692 -1432h-359z" />
<glyph unicode="]" horiz-adv-x="716" d="M80 -96h176v1409h-176v280h500v-1999h-500v310z" />
<glyph unicode="^" horiz-adv-x="1196" d="M86 809l387 645h250l387 -645h-303l-211 350l-207 -350h-303z" />
<glyph unicode="_" horiz-adv-x="1269" d="M119 -25h1032v-299h-1032v299z" />
<glyph unicode="`" horiz-adv-x="688" d="M106 1335v31l322 115l168 -371v-33h-283z" />
<glyph unicode="a" horiz-adv-x="1146" d="M66 293q-1 13 -1 25q0 162 99 248q106 93 285 93q135 0 221 -55v31q0 113 -213 113q-168 0 -273 -54l-41 248q160 72 375 72q221 0 356.5 -91.5t135.5 -297.5v-318q0 -45 3 -64.5t21.5 -34.5t57.5 -15v-191q-86 -20 -152 -20q-181 0 -199 155q-39 -80 -128 -117.5 t-189 -37.5q-143 0 -248.5 86t-109.5 225zM406 317q8 -69 90 -69h2q61 0 115.5 33t54.5 90v20q-63 45 -143 45h-13q-57 -4 -87 -34q-22 -22 -22 -58q0 -13 3 -27z" />
<glyph unicode="b" horiz-adv-x="1193" d="M119 39v1456h346v-522q96 37 201 37q201 -2 330.5 -156t129.5 -379q0 -141 -46 -244.5t-129 -161t-182 -83.5q-92 -24 -203 -23h-17q-215 2 -430 76zM457 270q74 -18 133 -18q188 0 188 223q0 104 -56 164.5t-147 60.5h-4l-114 -26v-404z" />
<glyph unicode="c" horiz-adv-x="1153" d="M66 498q0 127 46 228t121.5 164.5t169 96.5t193.5 33q186 0 329.5 -109.5t170.5 -308.5h-330q-37 113 -156 113h-5q-75 -1 -132 -57q-59 -58 -59 -160q0 -100 56 -158.5t132 -60.5h6q50 1 94 31q46 32 64 93h332q-26 -203 -174 -315q-145 -109 -330 -108h-10 q-211 2 -364.5 138t-153.5 380z" />
<glyph unicode="d" horiz-adv-x="1245" d="M66 492q0 219 141 369.5t340 150.5q94 0 190 -39v522h348v-1190v-43t4.5 -28.5t12.5 -25.5t24.5 -10t40.5 -5v-193q-59 -14 -113 -20q-23 -2 -47 -2q-33 0 -67 4q-59 8 -96 44t-39 99v12q-78 -160 -266 -164h-12q-211 -1 -334 143q-127 148 -127 376zM424 492 q0 -96 42 -153.5t130 -57.5q70 0 109.5 51t39.5 123v219q-70 31 -133 31q-84 -2 -136 -58.5t-52 -154.5z" />
<glyph unicode="e" horiz-adv-x="1126" d="M68 498q0 170 79.5 290.5t195.5 173t249 52.5q276 -4 390 -170q71 -104 72 -247q0 -85 -26 -185h-612q20 -158 246 -158q86 0 183 19.5t150 43.5l39 -251q-195 -90 -395 -93q-254 0 -412.5 139.5t-158.5 385.5zM418 621h319q1 7 1 14q0 51 -41 80q-46 33 -107 33 q-59 0 -109.5 -34t-62.5 -93z" />
<glyph unicode="f" horiz-adv-x="880" d="M51 741v246h172l2 105q0 154 57.5 251t157.5 131q91 30 195 30h19q114 -3 249 -38l-33 -258q-89 27 -151 27q-150 0 -150 -152v-96h287v-246h-287v-741h-350v741h-168z" />
<glyph unicode="g" horiz-adv-x="1204" d="M70 471q2 143 50 248.5t131 164t183 84.5q94 25 203 25h16q199 -2 432 -90v-930q0 -264 -144 -399q-142 -133 -363 -133h-7q-203 0 -417 113l41 260q170 -88 317 -88h6q232 4 232 254v16q-117 -45 -222 -45h-11q-195 0 -319 141q-128 144 -128 379zM418 471 q0 -104 51 -161.5t147 -57.5q63 0 129 29v409q-86 16 -127 17q-96 0 -148 -67t-52 -169z" />
<glyph unicode="h" horiz-adv-x="1241" d="M123 0v1495h350v-635q35 72 110.5 111t161.5 39q385 0 385 -445v-565h-352v565v8q0 75 -38 117q-40 45 -99 45q-66 0 -117 -47t-51 -129v-559h-350z" />
<glyph unicode="i" horiz-adv-x="593" d="M96 1251.5q0 94.5 60 146.5q58 50 139 50h6q82 -2 140.5 -53.5t58.5 -143.5t-58.5 -144t-140.5 -54h-6q-77 0 -137 51q-62 53 -62 147.5zM123 0l2 973h346v-973h-348z" />
<glyph unicode="j" horiz-adv-x="587" d="M-63 -518l10 256q24 -2 44 -2q70 0 97 22q35 27 35 129v1096h344l-2 -1100q0 -418 -364 -418q-74 0 -164 17zM90 1251q0 92 59.5 144.5t141.5 52.5t142.5 -52.5t60.5 -144.5t-58.5 -144t-140.5 -54h-6q-78 0 -137 51q-62 53 -62 147z" />
<glyph unicode="k" horiz-adv-x="1171" d="M123 2v1495h346v-850h41q74 0 123 27.5t71.5 81t29.5 105.5t7 128h330q1 -20 1 -39q0 -144 -40 -250q-45 -120 -172 -202l258 -461v-35h-352l-199 385q-27 -12 -63 -12h-35v-373h-346z" />
<glyph unicode="l" horiz-adv-x="661" d="M111 391v1106h344v-1104q0 -95 44 -125q32 -22 84 -21q21 0 44 3l10 -260q-85 -15 -156 -15q-140 0 -232 58q-138 88 -138 358z" />
<glyph unicode="m" horiz-adv-x="1859" d="M70 799v190q50 19 118 25q30 3 61 2q39 0 77 -4q70 -8 116.5 -49t46.5 -111q41 76 119 117t166 41q236 0 313 -176q47 82 134.5 129t181.5 47q199 0 275 -118q70 -109 69 -297v-30v-565h-352v565v8q0 76 -36 118t-89 42h-4q-56 -2 -94.5 -46t-41.5 -122v-565h-344v565v8 q0 76 -38.5 118t-94.5 42h-5q-60 -2 -104 -48t-44 -126v-559h-346v686q0 37 -1 51.5t-8.5 32.5t-26 23.5t-48.5 5.5z" />
<glyph unicode="n" horiz-adv-x="1271" d="M70 799v190q60 13 124 19q25 2 51 3q41 1 83 -5q70 -8 115.5 -47t48.5 -107q41 76 118.5 117t165.5 41q203 0 296 -122q89 -117 89 -307v-16v-565h-350v565v7q0 75 -40 117q-42 44 -103 46q-68 0 -117 -46t-49 -130v-559h-348v686q0 39 -1 51.5t-8.5 31.5t-25 24.5 t-49.5 5.5z" />
<glyph unicode="o" horiz-adv-x="1181" d="M66 498q0 246 154.5 383t367.5 137q215 0 371.5 -137.5t156.5 -383t-154.5 -381.5t-367.5 -139h-9q-132 1 -246 55q-118 56 -195.5 178t-77.5 288zM414 497.5q0 -102.5 53 -159.5q51 -55 122 -55h5q72 2 124 58t52 156.5t-52 157t-124 58.5h-5q-71 1 -122 -55 q-53 -58 -53 -160.5z" />
<glyph unicode="p" horiz-adv-x="1226" d="M70 801v190q55 12 109 17q25 3 51 3q31 0 64 -3q62 -7 100 -43.5t38 -102.5v-8q41 78 118 121t167 43q209 -4 325.5 -151.5t116.5 -364.5q0 -180 -95 -318.5t-242 -182.5q-60 -18 -125 -18q-93 0 -197 37v-526h-348v1190q0 41 -1 53.5t-8.5 33t-25 25.5t-47.5 5zM492 317 q68 -32 127 -32q51 0 95 24q95 51 95 193q0 86 -44 150q-41 59 -115 59h-9q-68 0 -108.5 -52t-40.5 -122v-220z" />
<glyph unicode="q" horiz-adv-x="1193" d="M68 502q0 145 47 250.5t130 163t182 82.5q86 23 188 23q16 0 32 -1q209 -6 428 -80v-1456h-348v524q-98 -39 -192 -39h-5q-200 0 -330 153q-132 154 -132 380zM418 487q0 -100 52 -156.5t136 -58.5q61 0 129 31v408q-66 16 -114 16h-6q-94 0 -145.5 -56.5t-51.5 -174.5 v-9z" />
<glyph unicode="r" horiz-adv-x="966" d="M68 801v190q60 13 122 19q25 2 50 3q38 1 80 -5q68 -8 114.5 -46t52.5 -106q29 78 103 120t164 42h14q108 0 186 -60l-69 -282q-71 49 -157 49h-13q-94 -4 -155.5 -63.5t-61.5 -165.5v-496h-342v688q0 45 -4.5 64.5t-23.5 34t-60 14.5z" />
<glyph unicode="s" horiz-adv-x="1056" d="M68 313h340q0 -45 33.5 -66.5t80.5 -21.5t81 20.5t34 57.5q0 29 -17.5 45.5t-37 21.5t-54.5 9q-74 8 -122 16t-116.5 29.5t-107.5 51.5t-68.5 82t-29.5 122q0 162 130 249t310 87q182 0 314 -91q124 -86 123 -228v-17h-306q-5 36 -41 56q-33 19 -73 18h-9 q-46 -2 -75 -19.5t-29 -46.5q0 -10 1 -18t6 -14.5t9.5 -11.5t13.5 -8t15 -6t17.5 -4t17.5 -2t18.5 -3.5t16.5 -2.5q84 -8 133 -16t117.5 -29.5t106.5 -52.5t64 -86q25 -51 25 -120v-11q-4 -158 -137 -245t-315 -87q-461 0 -469 342z" />
<glyph unicode="t" horiz-adv-x="942" d="M33 764v223h174l39 305h303v-305h301v-246h-301v-344q0 -85 55 -121q50 -33 110 -32h13q68 4 139 30l29 -260q-133 -37 -252 -39h-12q-112 0 -207 34q-100 36 -158.5 133.5t-58.5 246.5v352z" />
<glyph unicode="u" horiz-adv-x="1251" d="M113 428v559h352v-559v-16q0 -72 34 -111q38 -43 95 -43q63 0 110.5 49t47.5 127v553h348v-696q0 -39 3 -55.5t21.5 -28.5t57.5 -12v-191q-63 -16 -125 -22q-34 -4 -70 -4q-31 0 -65 2q-72 6 -117 48t-45 119q-37 -76 -116 -118.5t-167 -42.5q-205 0 -284.5 116.5 t-79.5 325.5z" />
<glyph unicode="v" horiz-adv-x="1138" d="M2 948v39h375l188 -444h4l195 444h373v-39l-498 -966h-137z" />
<glyph unicode="w" horiz-adv-x="1562" d="M10 948v39h373l92 -237l57 -181h7l174 396h133l176 -396h8l57 181l89 237h376v-39l-422 -966h-118l-234 415l-229 -415h-119z" />
<glyph unicode="x" horiz-adv-x="1107" d="M20 0v39l336 485l-282 424v39h332l143 -223h8l137 223h357v-39l-299 -446l325 -463v-39h-340l-174 274h-8l-174 -274h-361z" />
<glyph unicode="y" horiz-adv-x="1155" d="M2 948v39h373l211 -579h8l186 579h346v-39l-409 -1059q-53 -135 -111.5 -220t-134.5 -130q-67 -40 -150 -40q-12 0 -23 1q-97 6 -222 64l30 223q69 -31 122 -31q32 0 58 12q68 29 109 150l27 82z" />
<glyph unicode="z" horiz-adv-x="999" d="M53 0v39l383 661h-346v287h832v-39l-375 -639h377v-309h-871z" />
<glyph unicode="{" horiz-adv-x="702" d="M59 510v256q68 4 91.5 43t23.5 111v376q0 70 14.5 121t31 85t57 57.5t65.5 34t88.5 16.5t90 6h102.5v-246q-123 4 -123 -86v-397q0 -86 -52.5 -154.5t-138.5 -95.5q92 -29 141.5 -97.5t49.5 -162.5v-434q0 -92 123 -72v-277q-215 0 -287 23q-139 47 -158 236q-4 35 -4 75 v418q0 164 -115 164z" />
<glyph unicode="|" horiz-adv-x="602" d="M143 -186v1646h316v-1646h-316z" />
<glyph unicode="}" horiz-adv-x="702" d="M80 -129q123 -20 123 72v434q0 94 49 162.5t141 97.5q-86 27 -138 95.5t-52 154.5v397q0 90 -123 86v246h102.5t90 -6t88 -16.5t65.5 -34t57.5 -57.5t30.5 -85t14 -121v-376q0 -72 23.5 -111t91.5 -43v-256q-115 0 -115 -164v-418q0 -61 -7 -110t-25.5 -83t-36 -58.5 t-53 -40t-59 -24.5t-75 -12t-80 -4.5t-90.5 -1.5h-22v277z" />
<glyph unicode="~" horiz-adv-x="1290" d="M76 627q49 201 220 271.5t357 -26.5q8 -4 43 -21t48.5 -23.5t45 -18.5t48 -12t43 1t42 12t34 32.5t30.5 54.5l230 -111q-72 -227 -212.5 -284.5t-340.5 35.5q-18 8 -67.5 29.5t-74 30.5t-65.5 17.5t-66.5 1t-55.5 -32t-50 -69.5z" />
<glyph unicode="&#xa2;" horiz-adv-x="1234" d="M104 496q0 188 99.5 317t243 175t294.5 20l54 151h143l-68 -192q230 -109 263 -369h-326q-12 35 -39 64l-133 -388q57 -2 105 31t67 96h330q-29 -231 -208 -342.5t-392 -76.5l-52 -148h-151l63 189q-131 57 -212 179t-81 294zM451 496q0 -94 57 -162l129 377 q-78 -4 -132 -60.5t-54 -154.5z" />
<glyph unicode="&#xa3;" horiz-adv-x="1386" d="M92 647v187h131q-8 205 79 347t229.5 204.5t322.5 62.5q219 0 391 -86l-108 -281q-109 53 -265 54q-297 -10 -288 -301h417v-187h-393q25 -139 -4 -237q-31 -90 -57 -127q49 29 112.5 29.5t140.5 -13.5t107 -14q59 -2 85 34.5t14 135.5h290q39 -209 -36.5 -340 t-278.5 -131q-41 0 -124 14t-150.5 25.5t-138 7.5t-107.5 -33h-359v31q172 152 172 374q0 88 -26 244h-156z" />
<glyph unicode="&#xa5;" horiz-adv-x="1341" d="M68 1380v54h399l199 -476h12l196 476h400v-54l-352 -684h198v-172h-262v-108h262v-174h-262v-242h-375v242h-262v174h262v108h-262v172h197z" />
<glyph unicode="&#xa8;" horiz-adv-x="1183" d="M117 1286q0 78 55 127t137 49t137.5 -49t55.5 -127t-55.5 -126t-137.5 -48t-137 48t-55 126zM674 1286q0 78 55 127t137 49t136.5 -49t54.5 -127t-54.5 -126t-136.5 -48q-84 0 -138 48t-54 126z" />
<glyph unicode="&#xa9;" horiz-adv-x="1607" d="M94 711q0 172 61.5 311t161 224t227.5 131t260 46t260 -46t227.5 -131t160.5 -224t61 -311t-61 -311.5t-160.5 -225.5t-227.5 -132t-260 -46t-260 46t-227.5 132t-161 225.5t-61.5 311.5zM344 711q0 -119 40 -216.5t104.5 -156.5t146.5 -92t169 -33t169 33t146.5 92 t104.5 156.5t40 216t-40 216t-104.5 157t-146.5 92t-169 32.5t-169 -32.5t-146.5 -92t-104.5 -155.5t-40 -217zM487 708.5q0 120.5 60.5 205.5t148.5 111t178.5 14.5t160 -83t81.5 -180.5h-198q-18 55 -71.5 69.5t-99 -23.5t-45.5 -113q0 -74 46.5 -113t98.5 -23.5t71 76.5 h200q-12 -109 -80.5 -180.5t-160 -84.5t-179.5 10.5t-149.5 108.5t-61.5 205.5z" />
<glyph unicode="&#xab;" horiz-adv-x="1083" d="M86 709l324 520l153 -78l-192 -442l192 -437l-153 -79zM500 709l323 520l154 -78l-193 -442l193 -437l-154 -79z" />
<glyph unicode="&#xad;" d="M117 532v299h739v-299h-739z" />
<glyph unicode="&#xae;" horiz-adv-x="1607" d="M94 717q0 172 61.5 311t161 224t227.5 131.5t260 46.5t260 -46.5t227.5 -131.5t160.5 -224t61 -311t-61 -311.5t-160.5 -225.5t-227.5 -132t-260 -46t-260 46t-227.5 132t-161 225.5t-61.5 311.5zM346 717q0 -119 40 -216.5t103.5 -156.5t146.5 -92t169 -33t169 33 t146.5 92t103.5 156.5t40 216.5q0 158 -68 274.5t-170 168.5t-221 52t-221.5 -52t-170 -168.5t-67.5 -274.5zM549 391v662h305q115 0 184.5 -61.5t69.5 -174.5q0 -147 -109 -188l125 -201v-37h-206l-113 207h-53v-207h-203zM752 760h82q33 0 52 17.5t19 42t-18.5 42 t-52.5 17.5h-82v-119z" />
<glyph unicode="&#xb4;" horiz-adv-x="620" d="M53 1077v33l168 371l322 -115v-31l-207 -258h-283z" />
<glyph unicode="&#xb8;" horiz-adv-x="802" d="M147 -438l21 188q43 -29 115.5 -32t89.5 36q10 39 -33 60.5t-92 21.5l53 197h258l-35 -139q100 -16 132 -85t6 -157q-29 -90 -124.5 -128t-202 -23.5t-188.5 61.5z" />
<glyph unicode="&#xbb;" horiz-adv-x="1083" d="M106 272l193 437l-193 442l154 78l324 -520l-324 -516zM520 272l193 437l-193 442l154 78l323 -520l-323 -516z" />
<glyph unicode="&#x192;" horiz-adv-x="1155" d="M74 -436l30 260q303 -94 304 125v626h-281v248h281l2 252q0 123 37.5 209t101 132t151.5 63.5t183.5 8.5t201.5 -38l-30 -258q-301 94 -301 -127v-242h286v-248h-286l-2 -634q0 -154 -57.5 -251.5t-157 -131t-214 -31.5t-249.5 37z" />
<glyph unicode="&#x2c6;" horiz-adv-x="1087" d="M70 1083v33l297 320h350l295 -320v-33h-336l-135 146l-131 -146h-340z" />
<glyph unicode="&#x2da;" horiz-adv-x="776" d="M109 1249q0 80 40.5 139.5t101 86t132.5 26.5t132 -26.5t101 -86t41 -139.5q0 -82 -41 -141t-101 -87t-132 -27t-132.5 28t-101 86t-40.5 141zM297 1249q0 -49 44 -69.5t87 0t43 69.5t-43 69.5t-87 0t-44 -69.5z" />
<glyph unicode="&#x2dc;" horiz-adv-x="1030" d="M80 1223q61 172 170.5 228t265.5 -11q6 -2 28.5 -12.5t33 -14.5t30 -10t31.5 -4t27.5 6t25.5 18.5t17 36.5l186 -88q-37 -158 -152.5 -225.5t-248.5 -3.5q-4 2 -24.5 11t-29 13t-28 11.5t-29.5 9.5t-27.5 4t-28 -1t-22.5 -9t-22.5 -18.5t-16.5 -30.5q-25 12 -89 43.5 t-97 46.5z" />
<glyph unicode="&#x401;" horiz-adv-x="1171" d="M154 0v1434h895v-326h-521v-205h480v-328h-480v-233h539v-342h-913zM156 1716q0 74 53 121t131 47t131 -47t53 -121t-53 -120t-131 -46t-131 46t-53 120zM688 1716q0 74 52.5 121t131.5 47q76 0 129.5 -47t53.5 -121t-52.5 -120t-130.5 -46q-80 0 -132 46t-52 120z" />
<glyph unicode="&#x402;" horiz-adv-x="1566" d="M39 1110v324h1161v-324h-446v-330q35 68 134 109t193 41q207 0 310.5 -122t103.5 -323v-333q0 -504 -528 -402l10 256q104 -8 137 19.5t33 130.5v329q0 80 -52.5 124t-123.5 46q-80 2 -147.5 -46t-69.5 -122v-487h-363v1110h-352z" />
<glyph unicode="&#x403;" horiz-adv-x="1077" d="M154 0v1434h893v-328h-521v-1106h-372zM440 1561v32l183 340l313 -114v-31l-219 -227h-277z" />
<glyph unicode="&#x404;" horiz-adv-x="1554" d="M78 717q0 176 61.5 319.5t164 232.5t230.5 136t267 47q248 0 443.5 -139t234.5 -408h-361q-73 211 -317 211q-123 0 -214 -65.5t-116 -182.5h473v-309h-467q31 -115 124 -177.5t214 -62.5q121 -2 207 57.5t113 172.5h362q-25 -193 -133.5 -325t-247.5 -186t-301 -54 q-139 0 -269 46t-235.5 135t-169 232.5t-63.5 319.5z" />
<glyph unicode="&#x405;" horiz-adv-x="1329" d="M82 440h356q0 -70 67.5 -108.5t160.5 -38.5q86 0 152.5 37t66.5 98q0 33 -11.5 58.5t-36 41t-44 24.5t-59.5 14l-56 7t-57 5q-104 6 -193.5 30.5t-166.5 71.5t-121 128t-44 189q0 223 162 346t395 123q143 0 267 -50t205 -159.5t79 -259.5h-350q-2 70 -57.5 105 t-137.5 35q-195 0 -194 -131q0 -68 52 -94.5t167 -39.5q102 -8 178 -22t154 -46t127 -78t80.5 -123t31.5 -177q0 -213 -174 -336t-411 -123q-246 0 -419 123t-169 350z" />
<glyph unicode="&#x406;" horiz-adv-x="935" d="M98 0v303h183v827h-166v304h706v-304h-166v-827h183v-303h-740z" />
<glyph unicode="&#x407;" horiz-adv-x="935" d="M23 1716q0 78 55 127t137 49t137.5 -49t55.5 -127t-55.5 -126t-137.5 -48t-137 48t-55 126zM98 0v303h183v827h-166v304h706v-304h-166v-827h183v-303h-740zM545 1716q0 78 55 127t137 49t136.5 -49t54.5 -127t-54.5 -126t-136.5 -48q-84 0 -138 48t-54 126z" />
<glyph unicode="&#x408;" horiz-adv-x="1284" d="M47 473v186h348v-180q0 -82 53.5 -125t139.5 -43q84 0 132 42t48 126v633h-211v322h586v-961q0 -227 -161 -360t-392 -133q-233 0 -388 133t-155 360z" />
<glyph unicode="&#x409;" horiz-adv-x="2050" d="M29 8l6 268q119 -10 156.5 25t50.5 154l100 979h938v-463h217q111 0 203 -33t152.5 -89t101.5 -129t50 -153t-1 -160.5t-52 -153.5t-101.5 -129t-152.5 -90t-204 -34h-569v1100h-254l-56 -658q-18 -209 -76.5 -309t-182.5 -130t-326 5zM1280 330h213q59 0 100 32.5 t50.5 77.5t0 91.5t-50.5 78t-100 31.5h-213v-311z" />
<glyph unicode="&#x40a;" horiz-adv-x="2043" d="M154 0v1434h374v-486h381v486h365v-478h217q111 0 204 -32.5t152.5 -88t101.5 -127t50 -150.5t-1 -157.5t-52 -150.5t-102.5 -127t-153 -89t-203.5 -34h-578v606h-381v-606h-374zM1274 330h213q59 0 100 30.5t50.5 74.5t0 87t-50.5 74t-100 31h-213v-297z" />
<glyph unicode="&#x40b;" horiz-adv-x="1566" d="M39 1110v324h1161v-324h-446v-330q35 68 134 109t193 41q207 0 310.5 -122t103.5 -323v-485h-348v485q0 80 -52.5 124t-123.5 46q-80 2 -147.5 -46t-69.5 -122v-487h-363v1110h-352z" />
<glyph unicode="&#x40c;" horiz-adv-x="1480" d="M154 0v1434h374v-562q166 0 209 23q45 23 69.5 83t59.5 208q37 147 161 221t357 25v-252q-145 10 -174 -103q-74 -268 -176 -381l410 -641v-55h-424l-313 553q-43 -6 -179 -6v-547h-374zM592 1561v32l182 340l313 -114v-31l-219 -227h-276z" />
<glyph unicode="&#x40e;" horiz-adv-x="1331" d="M10 1386v48h412l272 -551h13l241 551h398v-39l-519 -1057q-57 -129 -116.5 -207t-142.5 -122t-193.5 -36.5t-257.5 62.5l49 264q98 -43 169 -24.5t120 124.5l49 103zM346 1853l203 21q6 -109 133 -109q129 0 145 109q66 -4 203 -21q-6 -164 -93 -248.5t-251 -84.5 q-160 0 -248 84.5t-92 248.5z" />
<glyph unicode="&#x40f;" horiz-adv-x="1499" d="M154 0v1434h374v-1096h443v1096h375v-1434h-412v-268h-361v268h-419z" />
<glyph unicode="&#x410;" horiz-adv-x="1433" d="M-25 0v51l658 1397h172l651 -1397v-51h-387l-84 178h-536l-82 -178h-392zM569 492h297l-149 346z" />
<glyph unicode="&#x411;" horiz-adv-x="1363" d="M154 0v1434h1030v-328h-664v-186h264q250 0 382 -125t132 -324q0 -201 -134 -336t-380 -135h-630zM520 328h262q72 0 112 42t40 99q0 59 -40 99t-112 40h-262v-280z" />
<glyph unicode="&#x412;" horiz-adv-x="1380" d="M156 8v1432h632q201 0 327 -121t126 -320q0 -68 -32.5 -136t-86.5 -111q86 -43 132 -125t46 -183q0 -190 -119.5 -313t-334.5 -123h-690zM530 334h289q98 0 111 110q4 51 -28 89t-85 38h-287v-237zM530 874h232q51 0 79.5 33t30.5 80q2 51 -27.5 89t-82.5 38h-232v-240z " />
<glyph unicode="&#x413;" horiz-adv-x="1077" d="M154 0v1434h893v-328h-521v-1106h-372z" />
<glyph unicode="&#x414;" horiz-adv-x="1601" d="M59 -168v485h54q80 2 108.5 40t40.5 143l109 934h989v-1117h143v-485h-303v168h-856v-168h-285zM565 309h422v803h-291l-65 -625q-10 -133 -66 -178z" />
<glyph unicode="&#x415;" horiz-adv-x="1171" d="M154 0v1434h895v-326h-521v-205h480v-328h-480v-233h539v-342h-913z" />
<glyph unicode="&#x416;" horiz-adv-x="2160" d="M41 0v55l410 641q-94 98 -166 387q-31 125 -187 95v252q449 102 518 -246q45 -229 142 -283q39 -25 137 -24v557h371v-557q100 0 139 24q41 25 72.5 79t43 96t25.5 108q66 348 516 246v-252q-154 31 -186 -95q-72 -289 -164 -387l410 -641v-55h-424l-312 551 q-90 -8 -120 -8v-543h-371v543q-33 0 -119 8l-313 -551h-422z" />
<glyph unicode="&#x417;" horiz-adv-x="1212" d="M59 467h326q0 -82 55.5 -133t137.5 -51q88 0 137 48t49 115q0 66 -49 114t-137 48h-111v299h106q66 0 103 39t37 90q0 57 -40 93t-98 36q-53 0 -94 -25.5t-41 -68.5h-329q-8 188 126 288.5t338 100.5q223 0 351.5 -124t128.5 -292q0 -74 -33 -147.5t-94 -118.5 q209 -111 209 -354q0 -199 -144.5 -325t-414.5 -126q-242 0 -380.5 128t-138.5 366z" />
<glyph unicode="&#x418;" horiz-adv-x="1546" d="M154 -4v1438h374v-701l748 707h117v-1440h-375v739l-754 -743h-110z" />
<glyph unicode="&#x419;" horiz-adv-x="1546" d="M154 -4h110l754 743v-739h375v1440h-117l-748 -707v701h-374v-1438zM494 1843l202 21q6 -109 133 -109q129 0 146 109q66 -4 203 -21q-6 -164 -93.5 -249t-250.5 -85q-160 0 -248 85t-92 249z" />
<glyph unicode="&#x41a;" horiz-adv-x="1480" d="M154 0v1434h374v-562q166 0 209 23q45 23 69.5 83t59.5 208q37 147 161 221t357 25v-252q-145 10 -174 -103q-74 -268 -176 -381l410 -641v-55h-424l-313 553q-43 -6 -179 -6v-547h-374z" />
<glyph unicode="&#x41b;" horiz-adv-x="1507" d="M29 8l6 268q119 -10 156.5 25t50.5 154l100 979h1012v-1434h-373v1100h-311l-56 -658q-18 -209 -76.5 -309t-182.5 -130t-326 5z" />
<glyph unicode="&#x41c;" horiz-adv-x="1710" d="M154 0v1438h133l569 -621l567 621h133v-1438h-374v662l-305 -320h-43l-306 320v-662h-374z" />
<glyph unicode="&#x41d;" horiz-adv-x="1501" d="M154 0v1434h374v-519h445v519h375v-1434h-375v573h-445v-573h-374z" />
<glyph unicode="&#x41e;" horiz-adv-x="1626" d="M78 717q0 238 108.5 410.5t273.5 253.5t357 81q139 0 269.5 -48t233.5 -138t165.5 -234.5t62.5 -324.5q0 -328 -205.5 -536t-531.5 -208q-145 0 -275 47.5t-233.5 137.5t-164 234.5t-60.5 324.5zM453 717q0 -182 106.5 -285.5t253.5 -103.5q145 0 253 103.5t108 285.5 t-106.5 285.5t-250.5 103.5q-152 0 -258 -101.5t-106 -287.5z" />
<glyph unicode="&#x41f;" horiz-adv-x="1499" d="M154 0v1434h1192v-1434h-375v1096h-443v-1096h-374z" />
<glyph unicode="&#x420;" horiz-adv-x="1347" d="M156 2v1434h632q244 0 381.5 -161t133.5 -378q0 -213 -136.5 -368.5t-378.5 -155.5h-258v-371h-374zM524 698h264q70 0 113 62.5t43 146.5q0 82 -41 142.5t-115 60.5h-264v-412z" />
<glyph unicode="&#x421;" horiz-adv-x="1556" d="M80 715q0 178 62.5 321.5t167 231.5t233.5 134t270 46q156 0 294 -53.5t245.5 -180.5t134.5 -309h-361q-72 205 -313 205q-162 0 -260 -107.5t-98 -285.5q0 -160 99 -274.5t259 -114.5q121 0 205 57t112 170h361q-27 -195 -133.5 -327t-244.5 -187t-300 -55 q-139 0 -269 47t-234.5 135t-167 230.5t-62.5 316.5z" />
<glyph unicode="&#x422;" horiz-adv-x="1142" d="M39 1106v328h1065v-328h-350v-1106h-363v1106h-352z" />
<glyph unicode="&#x423;" horiz-adv-x="1331" d="M10 1386v48h412l272 -551h13l241 551h398v-39l-519 -1057q-57 -129 -116.5 -207t-142.5 -122t-193.5 -36.5t-257.5 62.5l49 264q98 -43 169 -24.5t120 124.5l49 103z" />
<glyph unicode="&#x424;" horiz-adv-x="1847" d="M66 718.5q0 274.5 189 424t484 162.5v135h351v-135q305 -12 489 -155.5t184 -430.5q0 -195 -94 -327t-240.5 -190.5t-341.5 -64.5v-141h-346v141q-295 10 -485 158.5t-190 423zM440 719q0 -246 305 -266v530q-305 -12 -305 -264zM1083 453q306 20 306 266q0 252 -306 264 v-530z" />
<glyph unicode="&#x425;" horiz-adv-x="1415" d="M18 0v53l465 707l-415 618v56h405l232 -392h8l231 392h404v-56l-414 -618l463 -707v-53h-418l-264 449h-13l-262 -449h-422z" />
<glyph unicode="&#x426;" horiz-adv-x="1562" d="M154 0v1434h374v-1096h414v1096h377v-1117h145v-479h-301v162h-1009z" />
<glyph unicode="&#x427;" horiz-adv-x="1339" d="M61 1212v220h377v-220q0 -76 3 -124t11.5 -95t26 -72.5t44 -47t67.5 -28.5t95 -7t128 8v586h371v-1432h-371v500q-406 -47 -579 116.5t-173 595.5z" />
<glyph unicode="&#x428;" horiz-adv-x="2123" d="M154 0v1434h374v-1096h346v1096h375v-1096h346v1096h375v-1434h-1816z" />
<glyph unicode="&#x429;" horiz-adv-x="2213" d="M154 0v1434h376v-1096h347v1096h372v-1096h346v1096h373v-1117h148v-479h-301v162h-1661z" />
<glyph unicode="&#x42a;" horiz-adv-x="1462" d="M59 1120v314h582v-428h264q111 0 203 -34t152.5 -92.5t102.5 -134t51 -158.5t0 -166t-51 -159t-102.5 -134t-152.5 -93t-203 -35h-631v1120h-215zM641 330h262q61 0 101 35.5t48.5 87t-2 101.5t-50.5 86t-97 36h-262v-346z" />
<glyph unicode="&#x42b;" horiz-adv-x="2013" d="M154 0v1434h364v-428h264q111 0 203 -34t152.5 -92.5t102.5 -134t51 -158.5t0 -166t-51 -159t-102.5 -134t-152.5 -93t-203 -35h-628zM518 330q29 0 82 -1t98 -1t84 2q59 0 100.5 35.5t49.5 87t-2 101.5t-50.5 86t-97.5 36h-264v-346zM1487 0v1434h373v-1434h-373z" />
<glyph unicode="&#x42c;" horiz-adv-x="1339" d="M154 0v1434h364v-428h264q111 0 203 -34t152.5 -92.5t102.5 -134t51 -158.5t0 -166t-51 -159t-102.5 -134t-152.5 -93t-203 -35h-628zM518 330q29 0 82 -1t98 -1t84 2q59 0 100.5 35.5t49.5 87t-2 101.5t-50.5 86t-97.5 36h-264v-346z" />
<glyph unicode="&#x42d;" horiz-adv-x="1554" d="M57 549h363q27 -113 112.5 -172.5t206.5 -57.5q121 0 214.5 62.5t123.5 177.5h-467v309h473q-25 117 -115.5 182.5t-213.5 65.5q-244 0 -318 -211h-360q39 268 234.5 407.5t443.5 139.5q139 0 267 -47t230.5 -136t164 -232.5t61.5 -319.5t-63.5 -319.5t-169 -232.5 t-235.5 -135t-270 -46q-162 0 -301 54t-247.5 186t-133.5 325z" />
<glyph unicode="&#x42e;" horiz-adv-x="2250" d="M154 0v1434h374v-519h197q41 178 153.5 304.5t257 184.5t308.5 56q139 -2 268 -50t232.5 -137t166 -233.5t62.5 -322.5q0 -180 -63.5 -326.5t-169 -237t-234.5 -137.5t-270 -47q-266 4 -471 163t-248 443h-189v-575h-374zM1079 717q0 -186 106.5 -289.5t254.5 -103.5 q145 0 251.5 103t106.5 290q0 182 -107.5 283.5t-255 101.5t-252 -101.5t-104.5 -283.5z" />
<glyph unicode="&#x42f;" horiz-adv-x="1423" d="M55 0v53l281 457q-209 143 -213 418q0 205 135 355.5t381 150.5h631v-1434h-375v451h-197l-245 -451h-398zM485 936q0 -74 41 -127t115 -53h260v352h-260q-76 0 -116 -49t-40 -123z" />
<glyph unicode="&#x430;" horiz-adv-x="1146" d="M66 293q-8 180 98 273t285 93q135 0 221 -55v31q0 113 -213 113q-168 0 -273 -54l-41 248q160 72 375 72q221 0 356.5 -91.5t135.5 -297.5v-318q0 -45 3 -64.5t21.5 -34.5t57.5 -15v-191q-326 -76 -351 135q-39 -80 -128 -117.5t-189 -37.5q-143 0 -248.5 86t-109.5 225z M406 317q8 -70 92 -69q61 0 115.5 33t54.5 90v20q-68 49 -156 45q-57 -4 -87 -34.5t-19 -84.5z" />
<glyph unicode="&#x431;" horiz-adv-x="1224" d="M83 658.5q-1 115.5 30.5 225t85 202t144.5 165t212 111.5q23 8 37 13t36.5 16.5t32 20.5t22.5 24.5t10 31t-7 37.5h313q59 -152 -45 -267.5t-286 -172.5q-96 -31 -144.5 -72t-74.5 -129q43 45 107.5 74t123.5 33q229 12 356 -139.5t119 -360.5q-10 -203 -147.5 -348.5 t-376.5 -145.5q-455 -2 -531 445q-16 121 -17 236.5zM428 477q2 -98 60.5 -149.5t138.5 -48.5q80 0 136 50t54 148q-2 92 -60.5 144.5t-138.5 52.5q-78 0 -135 -54.5t-55 -142.5z" />
<glyph unicode="&#x432;" horiz-adv-x="1107" d="M123 -2v995h409q74 0 123.5 -3t119 -17.5t111.5 -42t72.5 -80.5t30.5 -129q0 -59 -34.5 -114.5t-96.5 -71.5q80 -29 129 -94.5t49 -151.5q0 -94 -36.5 -155.5t-105.5 -89.5t-133.5 -37t-154.5 -9h-483zM459 252h110q37 0 58.5 2t46 20.5t24.5 53.5q0 84 -129 84h-110 v-160zM459 616h94q96 0 96 66q0 70 -96 70h-94v-136z" />
<glyph unicode="&#x433;" horiz-adv-x="921" d="M123 0v987h756v-303h-416v-684h-340z" />
<glyph unicode="&#x434;" horiz-adv-x="1282" d="M39 268h12q39 0 65.5 9.5t42 18.5t27 37.5t14.5 42t10 57.5t9 61l82 493h780v-719h129l-12 -465h-295v197h-559v-197h-295zM483 268h262v432h-165l-33 -262q-20 -133 -64 -170z" />
<glyph unicode="&#x435;" horiz-adv-x="1126" d="M68 498q0 170 79.5 290.5t195.5 173t249 52.5q276 -4 390 -170t46 -432h-612q20 -158 246 -158q86 0 183 19.5t150 43.5l39 -251q-195 -90 -395 -93q-254 0 -412.5 139.5t-158.5 385.5zM418 621h319q6 61 -40 94t-107 33q-59 0 -109.5 -34t-62.5 -93z" />
<glyph unicode="&#x436;" horiz-adv-x="1658" d="M49 0v37l254 461q-125 76 -159.5 197.5t-18.5 291.5h328q-35 -344 196 -344h13v346h331v-346h17q227 0 192 344h332q16 -170 -19.5 -292t-162.5 -197l256 -461v-37h-353l-186 387q-37 -14 -59 -14h-17v-373h-331v373h-13q-29 0 -61 14l-189 -387h-350z" />
<glyph unicode="&#x437;" horiz-adv-x="1030" d="M70 51l16 268q53 -23 163.5 -49t196.5 -28q150 0 150 80q0 27 -12.5 43t-39 22t-43 7t-48.5 1h-170v228h153q33 0 52.5 3t37 18t17.5 44q0 72 -125 72q-66 0 -160 -17.5t-145 -44.5l-15 236q141 76 383 76q184 0 307 -65.5t123 -213.5q0 -72 -35.5 -125t-105.5 -71 q88 -29 141.5 -95.5t53.5 -156.5q0 -113 -69 -184.5t-168 -99.5t-226 -28q-242 0 -432 80z" />
<glyph unicode="&#x438;" horiz-adv-x="1226" d="M123 -2v989h336v-424l545 428h100v-991h-336v438l-557 -440h-88z" />
<glyph unicode="&#x439;" horiz-adv-x="1226" d="M123 -2h88l557 440v-438h336v991h-100l-545 -428v424h-336v-989zM319 1399l197 20q6 -104 129 -104q125 0 141 104q63 -4 197 -20q-12 -324 -334 -324q-156 0 -241 83t-89 241z" />
<glyph unicode="&#x43a;" horiz-adv-x="1173" d="M123 2v985h346v-340h41q74 0 123 27.5t71.5 81t29.5 105.5t7 128h330q6 -172 -37 -293t-170 -202l254 -457v-35h-352l-195 381q-18 -8 -67 -8h-35v-373h-346z" />
<glyph unicode="&#x43b;" horiz-adv-x="1257" d="M35 0l8 250q104 -10 134 22.5t40 139.5l64 575h854v-987h-342v680h-211l-23 -281q-23 -281 -130 -359.5t-394 -39.5z" />
<glyph unicode="&#x43c;" horiz-adv-x="1357" d="M123 4v983h102l453 -409l455 409h102v-983h-334v375l-211 -178h-26l-207 178v-375h-334z" />
<glyph unicode="&#x43d;" horiz-adv-x="1230" d="M123 0v987h336v-325h311v325h338v-987h-338v362h-311v-362h-336z" />
<glyph unicode="&#x43e;" horiz-adv-x="1181" d="M66 498q0 246 154.5 383t367.5 137q215 0 371.5 -137.5t156.5 -383t-154.5 -381.5t-367.5 -139q-137 -2 -255 54.5t-195.5 178.5t-77.5 288zM414 497.5q0 -102.5 53 -159.5t127 -55q72 2 124 58t52 156.5t-52 157t-124 58.5q-74 2 -127 -55.5t-53 -160z" />
<glyph unicode="&#x43f;" horiz-adv-x="1228" d="M123 0v987h983v-987h-348v680h-283v-680h-352z" />
<glyph unicode="&#x440;" horiz-adv-x="1232" d="M76 801v190q55 12 109.5 17.5t115.5 -1t99 -43t38 -102.5v-8q41 78 118 121t167 43q209 -4 325.5 -151.5t116.5 -364.5q0 -180 -95 -318.5t-241.5 -182.5t-322.5 19v-526h-348v1190q0 41 -1 53.5t-8.5 33t-25 25.5t-47.5 5zM498 317q127 -59 222 -8t95 193 q0 86 -44 149.5t-124 59.5q-68 0 -108.5 -52t-40.5 -122v-220z" />
<glyph unicode="&#x441;" horiz-adv-x="1153" d="M66 498q0 127 46 228t121.5 164.5t169 96.5t193.5 33q186 0 329.5 -109.5t170.5 -308.5h-330q-37 113 -156 113q-78 2 -137 -56.5t-59 -160.5q0 -100 56 -158.5t132 -60.5q55 -2 100.5 30.5t63.5 93.5h332q-25 -203 -173.5 -314.5t-340.5 -108.5q-211 2 -364.5 138 t-153.5 380z" />
<glyph unicode="&#x442;" horiz-adv-x="956" d="M45 684v303h866v-303h-264v-680h-338v680h-264z" />
<glyph unicode="&#x443;" horiz-adv-x="1155" d="M2 948v39h373l211 -579h8l186 579h346v-39l-409 -1059q-53 -135 -111.5 -220t-134.5 -130t-173 -39t-222 64l30 223q111 -49 179.5 -19.5t109.5 150.5l27 82z" />
<glyph unicode="&#x444;" horiz-adv-x="1703" d="M72 493.5q0 290.5 174 433t436 42.5v522h342v-522q264 100 436 -41.5t172 -433.5q0 -291 -172 -431.5t-436 -39.5v-525h-342v525q-262 -100 -436 40t-174 430.5zM422 493.5q0 -139.5 71.5 -192.5t198.5 2v381q-127 53 -198.5 1t-71.5 -191.5zM1018 303q121 -55 193.5 -2 t72.5 192.5t-72.5 191.5t-193.5 -1v-381z" />
<glyph unicode="&#x445;" horiz-adv-x="1107" d="M20 0v39l336 485l-282 424v39h332l143 -223h8l137 223h357v-39l-299 -446l325 -463v-39h-340l-174 274h-8l-174 -274h-361z" />
<glyph unicode="&#x446;" horiz-adv-x="1257" d="M123 0v987h334v-682h270v682h334v-719h127l-19 -461h-286v193h-760z" />
<glyph unicode="&#x447;" horiz-adv-x="1150" d="M57 760v227h351v-227q0 -133 85 -176t195 12v391h340v-987h-348v303q-279 -76 -451 42t-172 415z" />
<glyph unicode="&#x448;" horiz-adv-x="1716" d="M123 0v987h334v-682h233v682h336v-682h234v682h333v-987h-1470z" />
<glyph unicode="&#x449;" horiz-adv-x="1792" d="M123 0v987h336v-682h235v682h334v-682h232v682h335v-719h127l-16 -465h-291v197h-1292z" />
<glyph unicode="&#x44a;" horiz-adv-x="1189" d="M45 705v282h530v-272h132q195 0 317.5 -88t122.5 -271q0 -178 -124.5 -267t-317.5 -89h-463v705h-197zM575 258h125q111 0 111 98q0 101 -111 101h-125v-199z" />
<glyph unicode="&#x44b;" horiz-adv-x="1632" d="M123 0v987h334v-272h131q195 0 317.5 -88t122.5 -271q0 -178 -124.5 -267t-317.5 -89h-463zM457 258h125q111 0 110 98q1 101 -110 101h-125v-199zM1186 0v987h323v-987h-323z" />
<glyph unicode="&#x44c;" horiz-adv-x="1069" d="M123 0v987h334v-272h131q195 0 317.5 -88t122.5 -271q0 -178 -124.5 -267t-317.5 -89h-463zM457 258h125q111 0 110 98q1 101 -110 101h-125v-199z" />
<glyph unicode="&#x44d;" horiz-adv-x="1163" d="M55 399h334q16 -61 66.5 -93t109.5 -32q121 0 164 109h-231v219h231q-45 106 -164 107q-57 0 -108 -29t-70 -82h-330q27 201 172.5 308.5t335.5 105.5q213 -2 373 -138.5t160 -379.5q0 -246 -160 -383.5t-373 -137.5q-193 0 -340 113t-170 313z" />
<glyph unicode="&#x44e;" horiz-adv-x="1708" d="M123 0v987h338v-325h153q49 170 190.5 262t315.5 92q213 0 367.5 -139t154.5 -383q0 -246 -157.5 -384.5t-370.5 -136.5q-180 0 -324.5 100.5t-187.5 286.5h-141v-360h-338zM938 494q0 -100 53 -157.5t125 -57.5q70 0 123 57t53 157.5t-52 158t-124 57.5 q-74 0 -126 -56.5t-52 -158.5z" />
<glyph unicode="&#x44f;" horiz-adv-x="1169" d="M53 0v37l211 313q-74 45 -119 123t-45 162q0 141 96.5 245.5t266.5 106.5h584v-987h-353v281h-90l-180 -281h-371zM453 629q0 -37 29.5 -63.5t84.5 -26.5h127v184h-127q-55 0 -84.5 -27.5t-29.5 -66.5z" />
<glyph unicode="&#x451;" horiz-adv-x="1126" d="M68 498q0 170 79.5 290.5t195.5 173t249 52.5q276 -4 390 -170t46 -432h-612q20 -158 246 -158q86 0 183 19.5t150 43.5l39 -251q-195 -90 -395 -93q-254 0 -412.5 139.5t-158.5 385.5zM150 1278q0 72 51 118t126.5 46t127 -46t51.5 -118t-51.5 -116t-127 -44t-126.5 44 t-51 116zM418 621h319q6 61 -40 94t-107 33q-59 0 -109.5 -34t-62.5 -93zM666 1278q0 72 51 118t127 46t126 -46t50 -118t-50 -116t-126 -44q-78 0 -128 44t-50 116z" />
<glyph unicode="&#x452;" horiz-adv-x="1241" d="M-20 1133v231h143v131h350v-131h258v-231h-258v-273q35 72 110.5 111t161.5 39q385 0 385 -445v-426q1 -491 -503 -405v260q98 -6 127.5 21.5t29.5 127.5v422q-4 82 -45 126t-98 44q-66 0 -117 -47t-51 -129v-559h-350v1133h-143z" />
<glyph unicode="&#x453;" horiz-adv-x="921" d="M123 0v987h756v-303h-416v-684h-340zM344 1120v31l156 344l299 -106v-29l-193 -240h-262z" />
<glyph unicode="&#x454;" horiz-adv-x="1163" d="M66 494q0 244 159.5 380t372.5 138q190 2 335.5 -105.5t172.5 -308.5h-330q-18 53 -69.5 82t-108.5 29q-119 -1 -164 -107h232v-219h-232q43 -109 164 -109q59 0 109.5 32t66.5 93h334q-23 -201 -170 -313.5t-340 -112.5q-213 0 -372.5 137.5t-159.5 383.5z" />
<glyph unicode="&#x455;" horiz-adv-x="1056" d="M68 313h340q0 -45 33.5 -66.5t80.5 -21.5t81 20.5t34 57.5q0 29 -17.5 45.5t-37 21.5t-54.5 9q-74 8 -122 16t-116.5 29.5t-107.5 51.5t-68.5 82t-29.5 122q0 162 130 249t310 87q182 0 313.5 -91t123.5 -245h-306q-4 35 -40.5 55.5t-82 18.5t-75 -19.5t-29.5 -46.5 q0 -10 1 -18t6 -14.5t9.5 -11.5t13.5 -8t15 -6t17.5 -4t17.5 -2t18.5 -3.5t16.5 -2.5q84 -8 133 -16t117.5 -29.5t106.5 -52.5t64.5 -86t24.5 -131q-4 -158 -137 -245t-315 -87q-461 0 -469 342z" />
<glyph unicode="&#x456;" horiz-adv-x="593" d="M96 1251.5q0 94.5 60.5 146.5t144.5 50q82 -2 140.5 -53.5t58.5 -143.5t-58.5 -144t-140.5 -54t-143.5 51t-61.5 147.5zM123 0l2 973h346v-973h-348z" />
<glyph unicode="&#x457;" horiz-adv-x="593" d="M-111 1286q0 74 53.5 121t129.5 47q80 0 132 -47t52 -121q0 -76 -52 -121t-132 -45q-78 0 -130.5 45t-52.5 121zM123 0v987h348v-987h-348zM342 1286q0 74 51 121t131 47t131.5 -47t51.5 -121q0 -76 -51.5 -121t-131.5 -45t-131 45t-51 121z" />
<glyph unicode="&#x458;" horiz-adv-x="587" d="M-63 -518l10 256q106 -8 141 19.5t35 129.5v1096h344l-2 -1100q0 -504 -528 -401zM88 1264q0 92 59.5 144t141.5 52t142.5 -52t60.5 -144.5t-58.5 -144.5t-140.5 -54t-143.5 51.5t-61.5 147.5z" />
<glyph unicode="&#x459;" horiz-adv-x="1642" d="M35 0l8 250q104 -10 134 22.5t40 139.5l64 575h796v-272h84q195 0 318 -88t123 -271q0 -178 -125 -267t-318 -89h-416v680h-161l-23 -281q-23 -281 -130 -359.5t-394 -39.5zM1077 258h78q59 0 87 28.5t28 69.5q0 43 -28 72t-87 29h-78v-199z" />
<glyph unicode="&#x45a;" horiz-adv-x="1613" d="M123 0v987h336v-293h256v293h334v-282h84q197 0 318.5 -84t121.5 -265q0 -178 -125 -267t-318 -89h-415v395h-256v-395h-336zM1049 258h77q59 0 87 28.5t28 69.5q0 90 -115 90h-77v-188z" />
<glyph unicode="&#x45b;" horiz-adv-x="1241" d="M-16 1133v231h139v131h350v-131h258v-231h-258v-273q35 72 110.5 111t161.5 39q385 0 385 -445v-565h-346v565q-4 82 -45 126t-98 44q-66 0 -117 -47t-51 -129v-559h-350v1133h-139z" />
<glyph unicode="&#x45c;" horiz-adv-x="1173" d="M123 2v985h346v-340h41q74 0 123 27.5t71.5 81t29.5 105.5t7 128h330q6 -172 -37 -293t-170 -202l254 -457v-35h-352l-195 381q-18 -8 -67 -8h-35v-373h-346zM457 1120v31l155 344l299 -106v-29l-192 -240h-262z" />
<glyph unicode="&#x45e;" horiz-adv-x="1155" d="M2 948v39h373l211 -579h8l186 579h346v-39l-409 -1059q-53 -135 -111.5 -220t-134.5 -130t-173 -39t-222 64l30 223q111 -49 179.5 -19.5t109.5 150.5l27 82zM244 1415l196 21q6 -104 129 -105q125 0 142 105q63 -4 196 -21q-12 -324 -334 -323q-156 0 -240.5 82.5 t-88.5 240.5z" />
<glyph unicode="&#x45f;" horiz-adv-x="1228" d="M123 0v987h348v-680h283v680h352v-987h-332v-184h-321v184h-330z" />
<glyph unicode="&#x490;" horiz-adv-x="1077" d="M154 0v1434h600v196h293v-524h-521v-1106h-372z" />
<glyph unicode="&#x491;" horiz-adv-x="921" d="M123 0v987h493v182h263v-485h-416v-684h-340z" />
<glyph unicode="&#x2000;" horiz-adv-x="966" />
<glyph unicode="&#x2001;" horiz-adv-x="1933" />
<glyph unicode="&#x2002;" horiz-adv-x="966" />
<glyph unicode="&#x2003;" horiz-adv-x="1933" />
<glyph unicode="&#x2004;" horiz-adv-x="644" />
<glyph unicode="&#x2005;" horiz-adv-x="483" />
<glyph unicode="&#x2006;" horiz-adv-x="322" />
<glyph unicode="&#x2007;" horiz-adv-x="322" />
<glyph unicode="&#x2008;" horiz-adv-x="241" />
<glyph unicode="&#x2009;" horiz-adv-x="386" />
<glyph unicode="&#x200a;" horiz-adv-x="107" />
<glyph unicode="&#x2010;" d="M117 532v299h739v-299h-739z" />
<glyph unicode="&#x2011;" d="M117 532v299h739v-299h-739z" />
<glyph unicode="&#x2012;" d="M117 532v299h739v-299h-739z" />
<glyph unicode="&#x2013;" horiz-adv-x="1116" d="M117 532v299h882v-299h-882z" />
<glyph unicode="&#x2014;" horiz-adv-x="1296" d="M117 532v299h1063v-299h-1063z" />
<glyph unicode="&#x2018;" horiz-adv-x="575" d="M88 1075q0 37 14 72l97 295h202l-53 -187q63 -18 103.5 -65t40.5 -115q0 -84 -57.5 -136t-145.5 -52q-86 0 -143.5 52t-57.5 136z" />
<glyph unicode="&#x2019;" horiz-adv-x="577" d="M88 1264q0 84 57.5 136t145.5 52q86 0 143.5 -52t57.5 -136q0 -37 -15 -72l-96 -295h-203l53 186q-63 18 -103 65.5t-40 115.5z" />
<glyph unicode="&#x201a;" horiz-adv-x="602" d="M98 150q0 84 57.5 136t145.5 52q86 0 143.5 -52t57.5 -136q0 -37 -15 -72l-96 -295h-203l54 186q-63 18 -103.5 65.5t-40.5 115.5z" />
<glyph unicode="&#x201c;" horiz-adv-x="1083" d="M88 1075q0 37 14 72l97 295h202l-53 -187q63 -18 103.5 -65t40.5 -115q0 -84 -57.5 -136t-145.5 -52q-86 0 -143.5 52t-57.5 136zM596 1075q0 37 14 72l97 295h202l-53 -187q63 -18 103 -65t40 -115q0 -84 -57 -136t-145 -52q-86 0 -143.5 52t-57.5 136z" />
<glyph unicode="&#x201d;" horiz-adv-x="1093" d="M88 1264q0 84 57.5 136t145.5 52q86 0 143.5 -52t57.5 -136q0 -37 -15 -72l-96 -295h-203l53 186q-63 18 -103 65.5t-40 115.5zM604 1264q0 84 57.5 136t145.5 52q86 0 143.5 -52t57.5 -136q0 -37 -15 -72l-96 -295h-203l54 186q-63 18 -103.5 65.5t-40.5 115.5z" />
<glyph unicode="&#x201e;" horiz-adv-x="1107" d="M98 150q0 84 57.5 136t145.5 52q86 0 143.5 -52t57.5 -136q0 -37 -15 -72l-96 -295h-203l54 186q-63 18 -103.5 65.5t-40.5 115.5zM604 150q0 84 57.5 136t145.5 52q86 0 143.5 -52t57.5 -136q0 -37 -15 -72l-96 -295h-203l54 186q-63 18 -103.5 65.5t-40.5 115.5z" />
<glyph unicode="&#x2020;" horiz-adv-x="989" d="M72 715v293h264v452h315v-452h267v-293h-267v-901h-315v901h-264z" />
<glyph unicode="&#x2021;" horiz-adv-x="1081" d="M102 231v287h277v260h-277v287h277v395h315v-395h285v-287h-285v-260h285v-287h-285v-417h-315v417h-277z" />
<glyph unicode="&#x2022;" horiz-adv-x="995" d="M143 735q0 147 103.5 238.5t251.5 91.5q152 0 253 -91t101 -239q0 -145 -101 -235t-253 -90q-147 0 -251 91t-104 234z" />
<glyph unicode="&#x2026;" horiz-adv-x="1755" d="M98 149.5q0 83.5 58.5 136t144.5 52.5q88 0 145.5 -52.5t57.5 -136t-57.5 -135t-145.5 -51.5q-86 0 -144.5 51.5t-58.5 135zM672 149.5q0 83.5 58 136t144 52.5q88 0 145.5 -52.5t57.5 -136t-57.5 -135t-145.5 -51.5q-86 0 -144 51.5t-58 135zM1251 149.5 q0 83.5 58.5 136t144.5 52.5q88 0 145.5 -52.5t57.5 -136t-57.5 -135t-145.5 -51.5q-86 0 -144.5 51.5t-58.5 135z" />
<glyph unicode="&#x202f;" horiz-adv-x="386" />
<glyph unicode="&#x2030;" horiz-adv-x="2809" d="M70 1090q0 104 42 186t109.5 124t148.5 61.5t162.5 0t149.5 -61.5t110 -124t42 -186q0 -121 -56.5 -210t-141.5 -129t-184.5 -40t-184.5 40t-141 129t-56 210zM348 1089.5q0 -65.5 33 -101.5t72 -36t71.5 36t32.5 101.5t-32.5 102.5t-71.5 37t-72 -37t-33 -102.5zM465 0 l704 1432h338l-706 -1432h-336zM1141 338q0 121 56 210t141 129t183.5 40t183.5 -40t141.5 -129t56.5 -210t-56.5 -210t-141.5 -129t-183.5 -40t-183.5 40t-141 129t-56 210zM1415 338q0 -88 52.5 -124t105.5 0t53 124q0 66 -32.5 101.5t-72.5 35.5t-73 -35.5t-33 -101.5z M1980 338q0 121 56.5 210t141.5 129t183.5 40t183.5 -40t141 -129t56 -210t-56 -210t-141 -129t-183.5 -40t-183.5 40t-141.5 129t-56.5 210zM2255 338q0 -88 52 -124t105.5 0t53.5 124q0 66 -33 101.5t-73 35.5t-72.5 -35.5t-32.5 -101.5z" />
<glyph unicode="&#x2039;" horiz-adv-x="669" d="M86 709l324 520l153 -78l-192 -442l192 -437l-153 -79z" />
<glyph unicode="&#x203a;" horiz-adv-x="669" d="M106 272l193 437l-193 442l154 78l324 -520l-324 -516z" />
<glyph unicode="&#x2044;" horiz-adv-x="1089" d="M-23 -123l783 1616h358l-782 -1616h-359z" />
<glyph unicode="&#x205f;" horiz-adv-x="483" />
<glyph unicode="&#x20ac;" horiz-adv-x="1341" d="M84 502v166h131q-4 68 4 118h-135v164h160q66 240 257 369t431 129q158 0 295 -55l-109 -291q-80 35 -174 35q-209 0 -311 -187h375l-54 -164h-372q-10 -68 -2 -118h333l-55 -166h-242q90 -197 326 -197q123 0 207 57l123 -303q-158 -76 -340 -75q-274 0 -456.5 133 t-237.5 385h-154z" />
<glyph unicode="&#x2122;" horiz-adv-x="1562" d="M139 1231v205h531v-205h-150v-367h-229v367h-152zM745 864v572h113l221 -213l219 213h113v-572h-229v180l-99 -92h-10l-98 92v-180h-230z" />
<glyph unicode="&#x25fc;" horiz-adv-x="983" d="M0 0v983h983v-983h-983z" />
</font>
</defs>
</svg>
